<svg width="798" height="766" viewBox="0 0 798 766" fill="none" xmlns="http://www.w3.org/2000/svg">
<path d="M450.303 761.577C419.158 746.829 406.727 711.779 402.335 679.121C401.603 673.672 400.042 668.058 401.813 662.866C403.59 657.675 409.055 653.408 414.294 654.87C418.639 656.083 421.185 660.469 424.093 663.961C427.959 668.606 433.143 672.114 438.857 673.95C442.613 675.157 447.066 675.531 450.155 673.075C454.395 669.705 453.852 663.153 452.907 657.767C451.143 647.73 449.385 637.694 447.621 627.66C446.676 622.276 445.729 616.772 446.54 611.374C447.35 605.976 450.25 600.595 455.134 598.291C460.021 595.987 466.863 597.87 468.835 602.965C469.659 605.085 469.598 607.438 470.125 609.65C470.655 611.864 472.115 614.163 474.347 614.427C476.604 614.694 478.504 612.8 479.847 610.951C484.491 604.566 487.08 596.917 489.429 589.348C491.779 581.778 493.994 574.059 498.041 567.269C502.084 560.479 508.272 554.592 515.917 552.848C523.565 551.106 532.595 554.48 535.828 561.728C539.07 568.998 535.94 577.456 532.157 584.425C526.542 594.765 519.439 604.266 511.144 612.545C509.649 614.038 508.026 615.652 507.715 617.759C507.153 621.551 511.16 624.544 514.91 625.124C519.154 625.785 523.442 624.629 527.729 624.414C532.016 624.197 536.883 625.279 539.146 628.984C542.285 634.121 538.654 640.676 534.76 645.223C526.963 654.335 517.608 662.072 507.233 667.995C503.513 670.117 499.555 672.096 496.83 675.421C494.103 678.75 492.993 683.921 495.567 687.391C498.142 690.864 503.307 691.24 507.33 689.767C511.353 688.296 514.69 685.41 518.395 683.249C525.329 679.198 534.982 678.091 540.812 683.691C544.642 687.371 545.907 693.185 545.179 698.468C544.45 703.751 541.983 708.614 539.26 713.172C529.744 729.112 516.441 742.898 500.264 751.763C484.088 760.628 468.437 764.935 450.303 761.577Z" fill="#F0F0F0"/>
<path d="M455.17 739.768C457.176 722.573 460.939 703.907 465.546 684.52C466.713 679.677 467.87 674.893 469.008 670.18C470.156 665.473 471.295 660.807 472.688 656.314C475.441 647.31 478.771 638.863 482.185 630.947C485.596 623.023 489.12 615.63 492.467 608.739C495.831 601.855 499.085 595.496 502.299 589.829C508.693 578.463 514.923 569.921 519.441 564.232C521.693 561.38 523.513 559.226 524.767 557.78C525.371 557.093 525.844 556.553 526.202 556.146C526.529 555.785 526.703 555.602 526.717 555.613C526.732 555.626 526.583 555.828 526.282 556.215C525.942 556.636 525.492 557.198 524.923 557.912C523.721 559.399 521.95 561.593 519.746 564.478C515.333 570.234 509.214 578.808 502.917 590.185C499.751 595.862 496.541 602.221 493.217 609.114C489.906 616.015 486.413 623.41 483.033 631.323C479.653 639.231 476.355 647.655 473.631 656.61C472.251 661.082 471.127 665.708 469.977 670.423C468.84 675.139 467.691 679.921 466.52 684.761C461.92 704.133 458.139 722.747 456.088 739.883L455.17 739.768Z" fill="#D7D9D9"/>
<path d="M473.084 656.26C473.021 656.281 472.698 655.493 472.168 654.049C471.633 652.607 470.928 650.496 470.095 647.876C468.427 642.638 466.365 635.326 464.127 627.254C461.885 619.177 459.727 611.918 457.983 606.72C457.117 604.117 456.396 602.017 455.877 600.573C455.369 599.127 455.116 598.31 455.179 598.285C455.245 598.258 455.62 599.022 456.24 600.429C456.871 601.833 457.697 603.9 458.649 606.481C460.576 611.636 462.85 618.897 465.092 626.981C467.283 634.952 469.262 642.161 470.776 647.67C471.474 650.155 472.067 652.247 472.542 653.928C472.952 655.407 473.149 656.236 473.084 656.26Z" fill="#D7D9D9"/>
<path d="M540.211 631.522C540.224 631.591 539.259 631.871 537.502 632.321C535.752 632.78 533.213 633.429 530.105 634.334C523.871 636.093 515.35 638.825 506.078 642.25C496.809 645.691 488.553 649.163 482.656 651.849C479.696 653.17 477.33 654.303 475.689 655.078C474.051 655.857 473.131 656.26 473.097 656.199C473.065 656.136 473.927 655.615 475.513 654.724C477.1 653.84 479.426 652.606 482.356 651.195C488.192 648.335 496.433 644.748 505.728 641.292C515.028 637.858 523.62 635.223 529.919 633.638C533.061 632.822 535.633 632.276 537.417 631.934C539.204 631.605 540.197 631.453 540.211 631.522Z" fill="#D7D9D9"/>
<path d="M455.936 738.379C455.907 738.399 455.696 738.137 455.318 737.617C454.883 736.991 454.353 736.231 453.708 735.309C452.32 733.299 450.386 730.339 448.045 726.65C443.359 719.276 437.205 708.888 430.569 697.33C423.931 685.771 417.882 675.339 413.356 667.879C411.144 664.253 409.324 661.271 407.97 659.055C407.388 658.092 406.911 657.299 406.517 656.646C406.196 656.09 406.038 655.79 406.067 655.766C406.096 655.75 406.31 656.014 406.687 656.534C407.123 657.158 407.652 657.919 408.296 658.84C409.684 660.848 411.618 663.809 413.958 667.497C418.646 674.871 424.798 685.261 431.436 696.821C438.075 708.378 444.12 718.81 448.647 726.272C450.861 729.894 452.681 732.876 454.035 735.092C454.615 736.055 455.094 736.852 455.488 737.501C455.81 738.06 455.965 738.361 455.936 738.379Z" fill="#D7D9D9"/>
<path d="M543.024 693.083C543.038 693.116 542.746 693.298 542.173 693.615C541.495 693.98 540.662 694.424 539.652 694.965C537.317 696.183 534.165 697.827 530.33 699.83C522.459 703.938 511.655 709.738 499.725 716.162C487.793 722.593 476.922 728.298 468.966 732.244C464.987 734.219 461.752 735.784 459.494 736.822C458.45 737.292 457.589 737.68 456.888 737.998C456.288 738.258 455.963 738.378 455.95 738.345C455.936 738.315 456.23 738.132 456.8 737.812C457.477 737.451 458.311 737.006 459.324 736.466C461.659 735.248 464.81 733.603 468.641 731.602C476.512 727.492 487.319 721.691 499.251 715.266C511.183 708.838 522.05 703.134 530.006 699.185C533.984 697.211 537.219 695.644 539.478 694.609C540.523 694.137 541.383 693.748 542.086 693.432C542.686 693.172 543.008 693.053 543.024 693.083Z" fill="#D7D9D9"/>
<path d="M224.304 373.628C224.304 373.628 202.829 376.613 214.886 423.645C226.942 470.676 237.168 494.914 237.168 494.914C237.168 494.914 238.787 505.568 230.201 505.237C221.613 504.91 204.103 497.935 198.165 507.201C192.005 516.813 197.389 528.392 210.859 540.514C224.329 552.635 252.864 580.272 255.434 582.781C257.957 585.244 259.871 590.464 253.985 591.176C252.901 591.308 250.596 591.248 247.553 591.188C234.076 590.925 206.09 590.663 205.159 606.955C204.019 626.93 247.088 654.532 251.74 657.637C256.39 660.746 257.124 663.179 256.081 665.879C255.039 668.581 241.144 665.608 229.198 664.7C217.253 663.791 203.243 664.832 203.55 676.41C203.858 687.989 226.472 717.248 292.451 739.004L323.682 747.084L346.77 724.348C393.214 672.681 398.299 636.053 392.813 625.852C387.326 615.652 374.649 621.712 364.734 628.435C354.82 635.16 344.24 644.645 341.993 642.818C339.747 640.992 339.174 638.516 341.666 633.51C344.156 628.5 367.818 583.148 356.902 566.38C345.987 549.615 312.151 574.644 306.688 576.951C301.226 579.255 300.293 573.777 301.26 570.385C302.243 566.929 313.273 528.766 318.937 511.553C324.601 494.343 323.521 481.619 313.4 476.34C303.64 471.253 291.913 486.002 284.624 490.554C277.335 495.107 273.446 485.058 273.446 485.058C273.446 485.058 270.276 458.941 257.365 412.138C244.457 365.334 223.874 373.72 223.874 373.72L224.304 373.628Z" fill="#E5E5E4"/>
<path d="M323.61 754.797C314.265 720.386 298.682 658.946 285.03 606.269C271.383 553.608 258.981 505.941 249.813 471.488C245.217 454.293 241.496 440.366 238.909 430.692C237.635 425.908 236.641 422.178 235.954 419.599C235.634 418.357 235.387 417.397 235.21 416.707C235.047 416.055 234.989 415.711 234.989 415.711C234.989 415.711 235.112 416.035 235.307 416.678C235.508 417.363 235.788 418.317 236.146 419.544C236.876 422.111 237.932 425.825 239.287 430.591C242 440.184 245.831 454.096 250.496 471.302C259.841 505.713 272.352 553.357 286 606.016C299.653 658.697 315.125 720.158 324.295 754.614L323.61 754.797Z" fill="#D7D9D9"/>
<path d="M222.521 517.915C222.559 517.856 223.287 518.251 224.577 519.018C225.871 519.779 227.706 520.932 229.963 522.379C234.467 525.285 240.59 529.453 247.263 534.177C253.823 538.857 259.758 543.089 264.296 546.328C266.351 547.776 268.086 548.995 269.478 549.977C270.707 550.832 271.37 551.334 271.332 551.394C271.296 551.452 270.564 551.061 269.266 550.304C267.976 549.541 266.138 548.386 263.897 546.913C259.418 543.964 253.353 539.717 246.684 534.994C240.091 530.362 234.129 526.175 229.567 522.969C227.505 521.532 225.763 520.321 224.364 519.347C223.14 518.479 222.483 517.973 222.521 517.915Z" fill="#D7D9D9"/>
<path d="M273.964 549.907C273.731 549.757 281.771 536.759 291.919 520.878C302.071 504.99 310.486 492.235 310.721 492.385C310.954 492.533 302.915 505.529 292.763 521.419C282.615 537.3 274.197 550.055 273.964 549.907Z" fill="#D7D9D9"/>
<path d="M291.108 631.695C291.065 631.639 291.677 631.053 292.821 630.039C294.128 628.895 295.758 627.469 297.694 625.774C301.802 622.17 307.453 617.168 313.486 611.422C319.535 605.686 324.829 600.304 328.629 596.378C330.419 594.531 331.928 592.977 333.135 591.732C334.207 590.638 334.823 590.058 334.875 590.103C334.926 590.148 334.407 590.819 333.424 591.994C332.441 593.167 330.988 594.838 329.144 596.863C325.472 600.92 320.242 606.396 314.176 612.147C308.126 617.912 302.384 622.844 298.153 626.316C296.029 628.044 294.296 629.423 293.069 630.341C291.847 631.263 291.151 631.747 291.108 631.695Z" fill="#D7D9D9"/>
<path d="M238.108 613.009C238.13 612.942 238.892 613.132 240.248 613.527C241.804 614.008 243.714 614.599 245.968 615.297C250.783 616.833 257.412 619.018 264.713 621.492C272.018 623.965 278.611 626.258 283.368 627.964C285.582 628.781 287.458 629.471 288.985 630.033C290.303 630.547 291.022 630.858 291 630.924C290.979 630.99 290.218 630.802 288.859 630.404C287.304 629.923 285.394 629.334 283.14 628.636C278.326 627.1 271.697 624.913 264.391 622.439C257.09 619.967 250.497 617.673 245.74 615.967C243.526 615.152 241.65 614.46 240.123 613.898C238.806 613.387 238.086 613.074 238.108 613.009Z" fill="#D7D9D9"/>
<path d="M244.342 687.244C244.363 687.178 245.336 687.428 247.074 687.936C248.986 688.518 251.452 689.271 254.412 690.175C260.595 692.109 269.113 694.843 278.501 697.923C287.892 701.006 296.377 703.849 302.501 705.953C305.421 706.979 307.854 707.832 309.739 708.496C311.441 709.117 312.372 709.491 312.35 709.556C312.329 709.623 311.356 709.374 309.618 708.866C307.706 708.282 305.24 707.53 302.28 706.627C296.099 704.695 287.581 701.959 278.189 698.877C268.8 695.796 260.316 692.953 254.191 690.847C251.273 689.823 248.84 688.968 246.953 688.306C245.251 687.685 244.32 687.31 244.342 687.244Z" fill="#D7D9D9"/>
<path d="M310.981 708.579C310.934 708.526 311.691 707.763 313.097 706.426C314.64 704.975 316.654 703.081 319.079 700.798C324.125 696.043 331.069 689.445 338.527 681.948C346.001 674.457 352.585 667.502 357.316 662.433C359.59 659.998 361.478 657.98 362.924 656.433C364.254 655.019 365.015 654.262 365.068 654.305C365.118 654.351 364.458 655.198 363.217 656.691C361.975 658.182 360.144 660.315 357.84 662.91C353.237 668.106 346.722 675.151 339.236 682.653C331.766 690.166 324.732 696.692 319.558 701.321C316.966 703.628 314.848 705.474 313.357 706.717C311.87 707.964 311.026 708.629 310.981 708.579Z" fill="#D7D9D9"/>
<path d="M131.332 93.132L113.695 87.6287C113.695 87.6287 109.076 102.438 93.6014 97.9014C85.568 95.5447 83.0558 89.0167 82.6239 84.4804C82.1215 79.214 84.3697 74.0903 88.3368 70.5877C92.8677 66.59 100.822 64.1501 112.054 69.9534L124.461 30.1856L107.021 24.7456L99.7535 48.0399C99.7535 48.0399 73.3217 46.7314 64.9106 73.6872C56.8645 99.4774 78.1255 112.683 88.0259 115.772C95.5967 118.134 121.958 124.349 131.332 93.132Z" fill="#F0F0F0"/>
<path d="M114.27 0L131.971 5.5231L126.813 22.0545L109.114 16.5314L114.27 0Z" fill="#F0F0F0"/>
<path d="M179.96 48.3074L187.025 46.4459C187.025 46.4459 185.46 40.5143 191.594 38.7829C194.78 37.8829 196.992 39.542 198.091 40.9698C199.365 42.6289 199.689 44.8175 199.096 46.8236C198.42 49.1152 196.267 51.6039 191.288 52.0196L195.488 67.9455L202.472 66.102L200.01 56.7746C200.01 56.7746 209.137 51.6581 206.291 40.8649C203.565 30.5362 193.672 30.5796 189.707 31.626C186.676 32.4267 176.539 35.8822 179.96 48.3074Z" fill="#E5E5E4"/>
<path d="M204.855 75.9864L197.767 77.8551L196.02 71.2368L203.108 69.3662L204.855 75.9864Z" fill="#E5E5E4"/>
<path d="M763.423 231.195L770.291 233.683C770.291 233.683 772.38 227.916 778.409 229.984C781.541 231.059 782.416 233.681 782.506 235.48C782.609 237.571 781.631 239.553 780.001 240.865C778.142 242.364 774.957 243.186 770.623 240.694L765.013 256.179L771.805 258.638L775.091 249.568C775.091 249.568 785.506 250.556 789.309 240.059C792.947 230.016 784.785 224.423 780.932 223.026C777.984 221.957 767.681 219.031 763.423 231.195Z" fill="#E5E5E4"/>
<path d="M768.362 268.277L761.469 265.779L763.802 259.344L770.693 261.841L768.362 268.277Z" fill="#E5E5E4"/>
<path d="M34.3242 309.844L48.8604 304.245C48.8604 304.245 44.1578 292.041 56.7564 286.937C63.3007 284.286 68.3774 287.284 71.0377 290.056C74.1282 293.273 75.3246 297.835 74.5366 302.225C73.6384 307.24 69.6587 313.016 59.1999 315.064L71.8239 347.836L86.1973 342.3L78.8001 323.103C78.8001 323.103 96.9508 310.126 88.3932 287.911C80.2043 266.659 59.2433 269.064 51.0833 272.209C44.8445 274.611 24.1727 284.307 34.3242 309.844Z" fill="#F0F0F0"/>
<path d="M94.2667 362.599L79.68 368.218L74.4316 354.594L89.0183 348.975L94.2667 362.599Z" fill="#F0F0F0"/>
<path d="M769.063 364.984L758.765 368.953C758.765 368.953 762.096 377.601 753.168 381.217C748.532 383.097 744.932 380.972 743.047 379.007C740.858 376.728 740.009 373.495 740.567 370.383C741.205 366.829 744.023 362.736 751.436 361.285L742.49 338.063L732.304 341.985L737.547 355.588C737.547 355.588 724.683 364.784 730.75 380.525C736.552 395.587 751.406 393.883 757.187 391.655C761.61 389.952 776.258 383.081 769.063 364.984Z" fill="#F0F0F0"/>
<path d="M726.396 327.628L736.731 323.645L740.451 333.299L730.113 337.281L726.396 327.628Z" fill="#F0F0F0"/>
<path d="M798 764.669C798 764.929 619.347 765.138 399.019 765.138C178.613 765.138 0 764.929 0 764.669C0 764.41 178.613 764.199 399.019 764.199C619.347 764.199 798 764.41 798 764.669Z" fill="#00476F"/>
<path d="M114.704 717.757C116.419 711.11 112.06 704.438 107.175 699.616C102.292 694.792 96.4503 690.474 93.9075 684.098C89.7904 673.768 95.3262 660.392 88.2994 651.775C84.1661 646.703 76.7544 645.008 73.0856 639.592C71.1608 636.749 70.5391 633.259 69.7818 629.912C65.9269 612.84 57.382 596.851 45.3309 584.158C44.4941 599.361 47.8467 614.774 54.9258 628.253C57.7705 633.673 61.264 638.956 62.2074 645.003C63.74 654.822 58.2567 664.939 60.6694 674.581C63.4292 685.607 75.8164 692.988 76.402 704.342C76.899 713.937 68.5348 722.36 69.1583 731.95C69.424 736.034 71.318 739.826 73.4272 743.331C80.8497 755.667 91.7495 764.163 108.272 763.887L128.51 764.597L114.704 717.757Z" fill="#F26522"/>
<path d="M128.509 764.597L108.271 763.887C108.009 763.89 107.748 763.894 107.49 763.894C91.4033 763.894 80.7312 755.472 73.4261 743.331C71.3169 739.826 69.4229 736.034 69.1572 731.95C69.1355 731.603 69.1247 731.26 69.1247 730.914C69.1265 722.03 76.4171 714.087 76.4226 705.182C76.4226 704.902 76.4153 704.622 76.4009 704.342C75.8153 692.988 63.4281 685.607 60.6683 674.581C60.2219 672.792 60.0448 670.986 60.0466 669.17C60.0484 662.438 62.4756 655.55 62.4811 648.755C62.4829 647.5 62.4015 646.25 62.2063 645.003C61.2629 638.956 57.7694 633.673 54.9247 628.253C48.5504 616.117 45.1979 602.412 45.2051 588.705C45.2051 587.189 45.2467 585.673 45.3298 584.158C57.3809 596.851 65.9258 612.84 69.7807 629.912C70.538 633.259 71.1597 636.749 73.0845 639.592C76.7533 645.008 84.165 646.703 88.2983 651.775C91.8605 656.143 92.1949 661.733 92.193 667.529C92.193 668.868 92.1768 670.22 92.175 671.57C92.175 675.898 92.3593 680.214 93.9064 684.098C96.4492 690.474 102.29 694.792 107.174 699.616C111.316 703.704 115.077 709.12 115.082 714.723C115.084 715.731 114.963 716.743 114.703 717.757L128.509 764.597Z" fill="#F26522"/>
<path d="M132.619 765.083C132.619 765.083 134.547 765.532 138.191 764.962C140.003 764.697 142.237 764.216 144.767 763.307C147.281 762.385 150.144 761.077 152.888 758.857C154.205 757.706 155.521 756.287 156.229 754.406C156.927 752.532 157.053 750.473 157.182 748.36C157.29 746.244 157.292 744.041 157.655 741.814C157.997 739.586 158.872 737.396 160.128 735.304C162.513 731.115 166.475 727.145 167.754 721.455C169.141 715.856 168.147 709.8 167.205 703.715C166.265 697.646 165.354 691.027 167.677 684.704C169.847 678.375 174.286 672.662 176.505 665.526C178.714 658.319 177.686 650.569 178.15 642.924C178.365 639.086 179.106 635.245 180.789 631.688C182.426 628.106 184.698 624.727 186.471 620.955C190.062 613.334 190.696 604.691 191.68 596.224C192.158 591.959 192.643 587.646 193.131 583.293C193.613 578.919 194.002 574.562 195.381 570.351C196.628 566.111 198.433 562.006 200.221 557.826C201.096 555.724 202.023 553.62 202.57 551.285C202.966 548.9 203.08 546.668 203.223 544.325C203.449 539.686 203.257 534.982 202.684 530.317C202.133 525.645 201.291 521.017 200.788 516.336C200.758 516.059 200.727 515.783 200.698 515.528L200.593 514.597L199.765 515.011C195.431 517.182 191.721 520.415 188.871 524.205C185.972 527.971 183.863 532.22 182.177 536.54C178.795 545.234 177.579 554.347 175.875 563.042C174.212 571.737 172.018 580.289 167.559 587.516C165.342 591.122 162.66 594.411 160.31 597.926C157.968 601.418 155.908 605.253 155.29 609.46C154.091 618.022 158.808 625.542 157.827 633.122C157.476 636.888 155.978 640.409 154.135 643.624C152.297 646.857 150.137 649.855 148.089 652.87C146.042 655.885 144.092 658.939 142.657 662.206C141.196 665.461 140.39 668.944 140.17 672.351C139.676 679.175 140.643 685.649 140.146 691.761C139.734 697.884 137.585 703.435 135.151 708.394C132.702 713.373 129.98 717.875 127.699 722.241C126.552 724.421 125.494 726.552 124.631 728.692C123.718 730.824 123.27 733.009 122.854 735.088C122.191 739.284 122.256 743.193 122.706 746.638C123.586 753.571 126.17 758.563 128.495 761.369C129.028 762.119 129.646 762.649 130.132 763.142C130.607 763.654 131.077 764.001 131.46 764.27C132.216 764.827 132.619 765.083 132.619 765.083C132.707 764.98 130.952 764.05 128.701 761.207C126.472 758.385 124 753.43 123.206 746.575C122.8 743.17 122.776 739.311 123.465 735.191C123.89 733.156 124.349 731.014 125.254 728.945C126.114 726.857 127.184 724.737 128.341 722.581C130.64 718.254 133.391 713.771 135.892 708.759C138.373 703.774 140.607 698.114 141.061 691.833C141.592 685.593 140.652 679.096 141.169 672.432C141.4 669.098 142.185 665.778 143.607 662.628C145.01 659.465 146.931 656.468 148.978 653.477C151.026 650.483 153.211 647.473 155.102 644.173C156.99 640.895 158.579 637.228 158.962 633.239C159.938 625.166 155.257 617.597 156.473 609.639C157.057 605.701 159.014 602.034 161.324 598.606C163.636 595.156 166.332 591.863 168.617 588.169C173.214 580.733 175.443 572.015 177.125 563.284C178.844 554.535 180.064 545.52 183.384 537.004C185.038 532.771 187.102 528.629 189.903 524.995C192.659 521.329 196.209 518.25 200.338 516.179L199.406 515.663C199.435 515.918 199.465 516.2 199.496 516.479C200.006 521.214 200.85 525.853 201.394 530.469C201.963 535.083 202.151 539.693 201.931 544.264C201.799 546.519 201.661 548.885 201.309 551.014C200.814 553.143 199.906 555.243 199.037 557.323C197.26 561.488 195.43 565.653 194.159 569.985C192.753 574.298 192.35 578.821 191.882 583.144C191.398 587.5 190.919 591.814 190.445 596.085C189.478 604.588 188.844 613.09 185.385 620.449C183.677 624.114 181.409 627.503 179.722 631.2C177.984 634.891 177.212 638.95 177.011 642.854C176.569 650.663 177.584 658.297 175.472 665.216C173.375 672.1 168.96 677.843 166.73 684.375C164.342 690.973 165.331 697.807 166.296 703.857C167.274 709.95 168.255 715.88 166.952 721.26C165.783 726.696 161.935 730.629 159.499 734.939C158.23 737.077 157.323 739.396 156.988 741.708C156.634 744.01 156.652 746.233 156.564 748.331C156.457 750.415 156.34 752.461 155.7 754.214C155.064 755.962 153.826 757.343 152.561 758.472C149.918 760.659 147.106 761.996 144.634 762.943C142.145 763.88 139.94 764.4 138.151 764.704C136.356 765.027 134.966 765.074 134.034 765.1C133.103 765.067 132.619 765.083 132.619 765.083Z" fill="#00476F"/>
<path d="M196.446 526.677C196.424 526.674 196.357 526.881 196.249 527.288C196.131 527.774 195.983 528.373 195.802 529.112C195.405 530.704 194.93 533.111 194.167 536.119C193.372 539.115 191.535 542.507 189.965 546.688C188.335 550.835 186.679 555.643 185.156 561.043C183.612 566.438 182.242 572.433 180.813 578.854C179.338 585.261 177.867 592.134 174.335 598.617C172.676 601.904 170.808 605.23 169.326 608.871C167.806 612.511 166.985 616.489 166.412 620.483C165.44 628.499 163.969 636.639 162.049 644.967C157.992 661.551 154.126 677.346 150.607 691.729C147.002 706.063 143.754 718.979 141.016 729.867C138.352 740.656 136.187 749.423 134.66 755.606C133.957 758.574 133.4 760.916 132.995 762.62C132.834 763.363 132.701 763.965 132.594 764.453C132.511 764.867 132.48 765.084 132.502 765.089C132.524 765.093 132.598 764.888 132.724 764.487C132.863 764.006 133.037 763.415 133.25 762.683C133.711 760.995 134.347 758.673 135.151 755.733C136.774 749.573 139.075 740.842 141.907 730.094C144.723 719.227 148.061 706.334 151.768 692.025C155.321 677.639 159.221 661.84 163.316 645.251C165.237 636.933 166.725 628.643 167.672 620.666C168.234 616.701 169.016 612.866 170.477 609.336C171.906 605.788 173.746 602.477 175.405 599.155C178.966 592.552 180.448 585.469 181.866 579.087C183.253 572.65 184.563 566.673 186.041 561.289C187.5 555.898 189.085 551.099 190.644 546.948C192.134 542.782 193.91 539.348 194.655 536.251C195.356 533.171 195.741 530.789 196.059 529.164C196.189 528.416 196.294 527.807 196.379 527.317C196.444 526.9 196.468 526.681 196.446 526.677Z" fill="#00476F"/>
<path d="M136.247 765.151C149.465 757.293 153.259 733.446 147.745 719.09C142.232 704.735 132.58 691.619 131.092 676.313C129.948 664.55 133.8 652.475 131.062 640.977C127.362 625.458 112.211 613.436 112.387 597.484C112.484 588.535 117.577 580.113 117.171 571.17C116.674 560.202 108.255 551.501 103.041 541.84C95.0602 527.05 94.536 509.565 91.807 492.983C89.078 476.401 82.7579 458.642 68.0627 450.491C65.8904 464.57 62.1872 474.212 63.3511 493.285C63.7686 500.134 71.7243 513.246 72.8069 528.258C73.4539 537.227 73.9039 546.213 74.4515 555.194C74.9847 563.93 75.5504 572.828 78.6824 581C81.0825 587.264 84.9375 592.955 86.7195 599.422C90.072 611.589 85.6676 624.767 88.375 637.093C90.6684 647.538 97.8958 656.523 99.3724 667.116C101.447 681.994 91.8179 697.453 96.7482 711.644C99.1934 718.687 104.986 724.342 106.63 731.615C107.905 737.257 106.515 743.23 107.67 748.898C109.531 758.029 126.948 765.12 136.25 764.558" fill="#F26522"/>
<path d="M71.7121 464.423C71.6904 464.427 71.7103 464.694 71.77 465.216C71.8459 465.807 71.9453 466.57 72.0682 467.53C72.3718 469.563 72.7116 472.552 73.3983 476.409C74.1393 480.293 76.1382 484.661 77.7359 489.931C79.4239 495.185 81.1011 501.247 82.5848 508.031C84.0939 514.814 85.3554 522.321 86.6802 530.398C88.0483 538.419 89.449 547.28 93.4557 555.691C95.31 559.915 97.3902 564.144 98.9517 568.652C100.551 573.141 101.287 577.97 101.739 582.935C102.422 592.905 103.75 603.278 105.615 613.727C109.665 634.585 113.52 654.453 117.03 672.539C120.73 690.552 124.064 706.778 126.869 720.441C129.703 734.003 132.002 745.006 133.612 752.712C134.422 756.451 135.058 759.387 135.51 761.474C135.728 762.416 135.902 763.164 136.036 763.746C136.16 764.255 136.236 764.516 136.258 764.512C136.28 764.507 136.249 764.237 136.166 763.719C136.065 763.133 135.931 762.374 135.766 761.423C135.371 759.321 134.816 756.372 134.107 752.613C132.595 744.887 130.433 733.855 127.769 720.258C125.042 706.581 121.801 690.335 118.205 672.3C114.728 654.222 110.909 634.359 106.897 613.507C105.033 603.046 103.712 592.826 103.007 582.814C102.546 577.822 101.778 572.846 100.125 568.245C98.5162 563.644 96.4071 559.396 94.551 555.207C90.5677 546.921 89.1688 538.265 87.7429 530.219C86.3729 522.155 85.0536 514.626 83.4813 507.831C81.9342 501.03 80.1866 494.957 78.4281 489.705C76.7473 484.417 74.6869 480.085 73.8935 476.302C73.1417 472.512 72.7116 469.498 72.3266 467.49C72.1495 466.539 72.0103 465.784 71.9019 465.195C71.7989 464.679 71.7338 464.419 71.7121 464.423Z" fill="#00476F"/>
<path d="M708.919 86.9019H701.723C701.723 86.9019 701.723 92.9419 695.448 93.0521C692.186 93.1081 690.494 90.9719 689.807 89.3363C689.01 87.4368 689.252 85.2699 690.322 83.5096C691.54 81.4962 694.215 79.6673 699.064 80.5221V64.2998H691.951V73.8026C691.951 73.8026 681.973 76.3816 681.973 87.3772C681.973 97.8975 691.407 100.341 695.446 100.341C698.535 100.341 709.055 99.5945 708.919 86.9019Z" fill="#F26522"/>
<path d="M698.935 54.2654H691.715V61.0084H698.935V54.2654Z" fill="#F26522"/>
<path d="M748.38 77.3316C748.4 77.3316 748.406 77.0226 748.395 76.4208C748.377 75.7593 748.353 74.8737 748.319 73.7442C748.294 73.1568 748.294 72.4953 748.232 71.7724C748.131 71.0477 748.021 70.2615 747.901 69.4121C747.777 68.5572 747.647 67.6373 747.506 66.6577C747.265 65.6926 747.012 64.6661 746.743 63.5817C745.631 59.2587 743.73 54.0211 740.24 48.6661C736.805 43.3147 731.892 37.7536 725.216 33.2426C718.533 28.8129 710.124 25.3953 700.679 24.4917C698.315 24.4013 695.911 24.1176 693.467 24.3453C692.247 24.4302 691.008 24.4049 689.779 24.5838C688.55 24.77 687.31 24.9561 686.063 25.1441C681.136 26.1508 676.087 27.6165 671.388 30.1557C666.674 32.6372 662.19 35.8361 658.196 39.7416C654.285 43.7231 650.891 48.3751 648.276 53.553C645.639 58.7147 643.817 64.433 643.107 70.3862C642.816 71.8609 642.816 73.3718 642.726 74.8773C642.628 76.3846 642.574 77.8973 642.644 79.4154C642.767 82.4517 643.149 85.4988 643.792 88.508C645.184 95.045 647.846 101.201 651.408 106.606L651.354 106.057C648.834 112.332 646.364 118.486 643.953 124.493L643.515 125.585L644.649 125.274C651.413 123.414 657.994 121.605 664.357 119.854L663.873 119.762C670.746 124.934 678.597 128.232 686.394 129.599C690.288 130.284 694.174 130.575 697.931 130.316C699.813 130.235 701.671 130.144 703.474 129.792C704.38 129.651 705.278 129.512 706.171 129.373C707.056 129.21 707.917 128.939 708.781 128.729C722.653 125.167 732.901 116.622 738.766 108.161C741.749 103.922 743.889 99.7457 745.223 95.9197C745.565 94.9654 745.894 94.0473 746.21 93.1618C746.441 92.2545 746.662 91.3816 746.875 90.5448C747.083 89.7098 747.28 88.911 747.47 88.1501C747.618 87.382 747.695 86.6392 747.802 85.947C747.979 84.5518 748.221 83.3264 748.274 82.2547C748.308 81.1974 748.339 80.2956 748.364 79.5456C748.379 78.8588 748.391 78.313 748.4 77.8901C748.402 77.5196 748.397 77.3316 748.38 77.3316C748.364 77.3316 748.339 77.5196 748.303 77.8901C748.272 78.3112 748.227 78.8534 748.174 79.5365C748.124 80.283 748.064 81.1794 747.994 82.2294C747.911 83.2939 747.639 84.5066 747.437 85.8856C746.441 91.3111 744.278 99.4457 738.203 107.756C732.335 116.053 722.185 124.381 708.547 127.806C707.698 128.008 706.854 128.27 705.981 128.428C705.105 128.558 704.223 128.691 703.333 128.825C701.561 129.163 699.739 129.243 697.892 129.313C694.205 129.552 690.393 129.252 686.58 128.565C678.946 127.199 671.268 123.945 664.549 118.863L664.328 118.697L664.061 118.769C657.694 120.506 651.11 122.303 644.341 124.148L645.035 124.929C647.454 118.923 649.931 112.771 652.456 106.501L652.574 106.212L652.4 105.95C648.921 100.662 646.322 94.6455 644.961 88.2549C644.332 85.3145 643.958 82.3379 643.837 79.3685C643.768 77.8847 643.821 76.4045 643.919 74.9315C644.005 73.4586 644.002 71.982 644.289 70.5416C644.978 64.7203 646.751 59.1285 649.322 54.0771C651.874 49.0131 655.185 44.4569 659.004 40.5495C662.906 36.718 667.287 33.577 671.894 31.1353C676.49 28.6322 681.431 27.1845 686.254 26.1779C687.476 25.9881 688.691 25.802 689.894 25.6158C691.1 25.4351 692.316 25.4568 693.511 25.3682C695.907 25.1315 698.268 25.4044 700.588 25.4785C709.861 26.3243 718.139 29.6316 724.746 33.9438C731.347 38.341 736.234 43.781 739.678 49.0294C743.179 54.2814 745.124 59.4358 746.293 63.7028C746.579 64.7727 746.85 65.7866 747.101 66.7409C747.262 67.7096 747.41 68.6187 747.549 69.4663C747.688 70.3067 747.816 71.0856 747.934 71.8031C748.013 72.5206 748.033 73.1767 748.079 73.7604C748.162 74.8846 748.225 75.7647 748.274 76.4226C748.324 77.0226 748.361 77.3316 748.38 77.3316Z" fill="#00476F"/>
<path d="M209.293 290.477H313.67C313.67 290.477 313.67 202.839 404.745 201.27C452.044 200.455 476.569 231.438 486.533 255.173C498.103 282.738 494.602 314.15 479.097 339.711C461.395 368.901 423.266 398.231 352.924 385.837L352.258 618.378H455.465V480.523C455.465 480.523 600.215 443.105 600.215 283.584C600.215 130.957 476.791 97.9849 410.458 95.8668C373.546 94.6884 360.166 93.1016 314.514 99.5826C256.337 107.842 208.062 175.391 209.293 290.477Z" fill="#F26522"/>
<path d="M456.64 666.774H351.896V764.601H456.64V666.774Z" fill="#F26522"/>
<path d="M456.64 764.601H413.404V666.774H351.896H456.64V764.601Z" fill="#FF8F59"/>
<path d="M455.482 618.379H412.246V480.524C412.246 480.524 528.486 450.466 552.637 329.432C553.188 329.62 553.783 329.78 554.419 329.909L595.667 330.449C571.073 450.64 455.482 480.524 455.482 480.524V618.379ZM313.687 290.477H270.451C270.451 290.477 270.451 202.839 361.526 201.271C362.135 201.26 362.744 201.254 363.346 201.254C370.646 201.254 377.393 202.019 383.617 203.398C313.685 216.991 313.687 290.477 313.687 290.477ZM533.476 187.649C491.742 115.064 405.048 95.5076 361.535 95.5094C356.8 95.5094 350.861 95.6305 344.024 96.0642C354.585 95.1226 363.274 94.7937 371.953 94.7937C383.398 94.7937 394.822 95.3666 410.475 95.8672C456.447 97.3348 529.838 113.615 570.562 174.284L562.482 174.765L561.025 172.332L549.099 177.877C546.496 179.088 544.002 180.499 541.618 182.097C539.524 183.5 536.643 185.385 533.476 187.649ZM305.542 101.351C308.484 100.608 311.457 100.022 314.457 99.5939C311.542 100.113 308.562 100.696 305.542 101.351Z" fill="#FF8F59"/>
<path d="M166.032 290.444H270.409C270.409 290.444 270.409 202.806 361.484 201.237C408.783 200.422 433.308 231.405 443.272 255.14C454.842 282.705 451.341 314.117 435.838 339.678C418.134 368.868 379.34 395.399 308.998 383.004V618.345H412.204V480.49C412.204 480.49 556.954 443.072 556.954 283.551C556.954 130.924 420.082 95.474 361.493 95.4758C316.69 95.4758 164.062 106.307 166.032 290.444Z" fill="#F26522"/>
<path d="M412.205 618.345H308.999V383.004C321.182 385.151 332.411 386.131 342.758 386.131C392.139 386.127 421.202 363.811 435.839 339.678C445.134 324.352 450.115 306.921 450.119 289.478C450.122 277.83 447.905 266.177 443.273 255.14C434.995 235.419 416.669 210.697 383.576 203.364C377.351 201.985 370.605 201.221 363.305 201.221C362.703 201.221 362.094 201.226 361.485 201.237C270.41 202.806 270.41 290.444 270.41 290.444H166.033C166.02 289.274 166.013 288.114 166.013 286.957C165.995 106.17 316.975 95.4758 361.494 95.4758C405.007 95.474 491.701 115.031 533.435 187.616C524.7 193.862 513.797 202.999 511.256 212.891C503.255 244.052 516.808 278.844 516.808 278.844L516.972 278.716C517.941 281.342 522.841 283.386 525.935 284.322C528.452 285.083 531.077 285.302 533.715 285.302C535.163 285.302 536.614 285.235 538.053 285.157C538.371 285.141 538.689 285.123 539.009 285.103L549.872 314.211C549.872 314.211 546.238 316.425 546.086 320.217C545.947 323.635 547.583 327.679 552.596 329.398C528.445 450.433 412.205 480.49 412.205 480.49V618.345Z" fill="#F26522"/>
<path d="M413.385 666.774H308.642V764.601H413.385V666.774Z" fill="#F26522"/>
<path d="M413.385 666.774H308.642V764.601H413.385V666.774Z" fill="#F26522"/>
<path d="M373.549 201.759C373.544 201.791 373.005 201.757 371.988 201.665C370.966 201.612 369.483 201.325 367.54 201.303C363.674 201.047 358.046 201.146 351.173 201.983C344.309 202.841 336.196 204.544 327.548 207.54C323.248 209.089 318.775 210.871 314.384 213.203C309.952 215.449 305.564 218.198 301.508 221.54C297.429 224.847 293.979 228.707 290.972 232.673C287.954 236.625 285.34 240.663 283.076 244.635C278.637 252.64 275.604 260.359 273.728 267.02C271.809 273.675 270.97 279.243 270.589 283.094C270.367 285.021 270.309 286.525 270.255 287.546C270.195 288.567 270.148 289.102 270.116 289.102C270.083 289.102 270.067 288.565 270.065 287.542C270.058 286.518 270.056 285.005 270.224 283.064C270.493 279.183 271.238 273.565 273.089 266.841C274.894 260.111 277.883 252.307 282.318 244.214C284.581 240.195 287.202 236.112 290.24 232.111C293.26 228.111 296.755 224.184 300.912 220.813C305.033 217.417 309.477 214.641 313.959 212.384C318.405 210.038 322.921 208.26 327.262 206.72C335.993 203.745 344.175 202.102 351.095 201.321C358.021 200.566 363.687 200.568 367.565 200.938C369.512 201.016 370.997 201.363 372.013 201.477C373.025 201.631 373.554 201.728 373.549 201.759Z" fill="#00476F"/>
<path d="M530.449 183.054C530.435 183.063 530.321 182.922 530.111 182.642C529.873 182.317 529.573 181.903 529.197 181.386C528.373 180.216 527.223 178.586 525.761 176.511C525.007 175.46 524.223 174.252 523.274 172.998C522.271 171.778 521.181 170.459 520.016 169.044C518.846 167.623 517.601 166.105 516.278 164.498C514.919 162.922 513.334 161.384 511.753 159.698C510.133 158.05 508.523 156.234 506.691 154.502C504.818 152.809 502.868 151.048 500.853 149.225C499.837 148.325 498.841 147.362 497.759 146.469C496.655 145.599 495.534 144.716 494.397 143.821C492.102 142.054 489.825 140.125 487.34 138.347C477.434 131.174 465.847 124.277 453.14 118.15C449.923 116.695 446.748 115.259 443.616 113.842C440.413 112.6 437.256 111.375 434.153 110.171C431.077 108.893 427.932 107.988 424.892 106.983C421.836 106.034 418.894 104.937 415.912 104.239C412.953 103.464 410.071 102.705 407.267 101.969C404.466 101.227 401.681 100.787 399.024 100.207C396.353 99.7085 393.803 99.0434 391.295 98.7308C388.797 98.3711 386.399 98.0241 384.109 97.6916C379.542 96.9108 375.349 96.7536 371.693 96.3867C369.86 96.2421 368.157 96.0451 366.585 95.9728C365.016 95.9295 363.58 95.8915 362.278 95.8572C359.743 95.774 357.747 95.7108 356.318 95.6656C355.68 95.6349 355.168 95.6096 354.765 95.5915C354.415 95.568 354.236 95.5499 354.236 95.5337C354.236 95.5174 354.415 95.5047 354.764 95.4939C355.167 95.4885 355.678 95.4831 356.316 95.4758C357.749 95.4794 359.746 95.4849 362.287 95.4903C363.59 95.4993 365.033 95.512 366.605 95.5246C368.183 95.5698 369.891 95.7415 371.729 95.8608C375.399 96.1789 379.608 96.2891 384.192 97.0319C386.494 97.3446 388.903 97.6735 391.412 98.0151C393.93 98.3097 396.492 98.9567 399.176 99.4428C401.847 100.007 404.645 100.433 407.457 101.163C410.275 101.89 413.174 102.638 416.145 103.404C419.138 104.093 422.096 105.185 425.167 106.128C428.223 107.126 431.382 108.029 434.473 109.305C437.588 110.511 440.76 111.736 443.977 112.98C447.124 114.4 450.314 115.84 453.543 117.299C466.306 123.451 477.931 130.402 487.851 137.647C490.34 139.444 492.621 141.39 494.916 143.176C496.053 144.081 497.173 144.974 498.278 145.854C499.36 146.756 500.354 147.73 501.37 148.641C503.383 150.486 505.326 152.267 507.195 153.98C509.024 155.733 510.627 157.571 512.237 159.241C513.809 160.949 515.382 162.507 516.73 164.104C518.037 165.735 519.271 167.273 520.426 168.715C521.574 170.152 522.645 171.491 523.634 172.729C524.563 174.003 525.329 175.23 526.059 176.3C527.464 178.42 528.564 180.09 529.356 181.283C529.699 181.821 529.974 182.251 530.193 182.591C530.375 182.888 530.464 183.045 530.449 183.054Z" fill="#00476F"/>
<path d="M519.721 407.138C519.745 407.16 519.473 407.532 518.931 408.222C518.322 408.978 517.523 409.974 516.524 411.215C515.481 412.52 514.178 414.093 512.582 415.847C510.999 417.61 509.25 419.67 507.149 421.792C505.093 423.955 502.825 426.31 500.265 428.715C497.777 431.193 494.952 433.664 492.013 436.299C486.035 441.455 479.223 446.853 471.734 452.053C464.212 457.204 456.742 461.65 449.797 465.407C446.289 467.218 442.974 468.978 439.772 470.422C436.614 471.962 433.605 473.242 430.853 474.395C428.124 475.602 425.575 476.506 423.365 477.359C421.156 478.224 419.224 478.884 417.636 479.396C416.119 479.887 414.905 480.281 413.983 480.581C413.145 480.841 412.7 480.964 412.689 480.932C412.678 480.903 413.103 480.719 413.922 480.4C414.829 480.059 416.024 479.611 417.515 479.049C419.082 478.487 420.992 477.78 423.175 476.867C425.364 475.969 427.887 475.027 430.59 473.782C433.321 472.593 436.303 471.281 439.437 469.719C442.613 468.248 445.902 466.466 449.386 464.643C456.283 460.86 463.707 456.409 471.202 451.276C478.659 446.1 485.458 440.743 491.446 435.645C494.39 433.035 497.222 430.597 499.727 428.15C502.3 425.779 504.589 423.458 506.671 421.329C508.796 419.243 510.574 417.219 512.192 415.495C513.82 413.778 515.159 412.245 516.246 410.979C517.299 409.784 518.143 408.828 518.785 408.103C519.372 407.451 519.696 407.118 519.721 407.138Z" fill="#00476F"/>
<path d="M410.434 610.168C410.172 610.168 409.962 581.139 409.962 545.337C409.962 509.521 410.172 480.498 410.434 480.498C410.692 480.498 410.904 509.521 410.904 545.337C410.904 581.139 410.692 610.168 410.434 610.168Z" fill="#00476F"/>
<path d="M414.328 757.966C414.068 757.966 413.858 737.595 413.858 712.471C413.858 687.335 414.068 666.969 414.328 666.969C414.586 666.969 414.8 687.335 414.8 712.471C414.8 737.595 414.586 757.966 414.328 757.966Z" fill="#00476F"/>
<path d="M517.048 276.587C515.226 280.225 521.98 283.16 525.875 284.338C529.771 285.516 533.928 285.394 537.993 285.173C543.38 284.882 548.961 284.38 553.644 281.705C557.806 279.326 560.909 275.397 563.078 271.123C565.245 266.849 566.562 262.202 567.867 257.59C567.867 257.59 525.168 260.386 517.048 276.587Z" fill="#F26522"/>
<path d="M533.874 285.303C531.235 285.303 528.611 285.085 526.093 284.324C522.999 283.388 518.1 281.344 517.131 278.718L525.667 272.045C527.94 270.321 530.1 268.835 532.571 267.431L539.167 285.105C538.847 285.125 538.529 285.143 538.211 285.159C536.773 285.237 535.321 285.303 533.874 285.303Z" fill="#9E303C"/>
<path d="M637.997 264.98C644.964 269.959 653.536 272.65 662.099 272.549C666.202 272.498 670.548 271.706 673.577 268.938C674.971 267.664 676.01 266.035 677.445 264.81C678.419 263.978 679.559 263.348 680.474 262.451C681.388 261.555 682.079 260.273 681.804 259.023C681.522 257.741 680.449 255.678 679.308 255.032C674.403 252.249 668.553 252.348 662.916 252.479C657.277 252.607 651.723 253.923 646.379 255.721C642.007 257.19 637.426 259.267 635.21 263.312L637.997 264.98Z" fill="#F26522"/>
<path d="M661.504 272.546C653.282 272.546 645.079 269.98 638.325 265.296C638.327 265.265 638.331 265.234 638.334 265.203C638.495 263.877 638.728 262.268 639.048 260.43C639.102 260.098 639.162 259.758 639.223 259.411C645.571 256.396 655.684 253.326 670.642 253.207H670.739C677.592 253.207 681.679 259.019 681.679 259.019L681.27 258.083C681.469 258.404 681.614 258.722 681.679 259.019C681.72 259.209 681.74 259.4 681.74 259.59C681.738 260.651 681.124 261.688 680.349 262.447C679.434 263.344 678.294 263.974 677.32 264.806C675.885 266.031 674.845 267.66 673.452 268.934C670.423 271.702 666.076 272.494 661.974 272.545C661.817 272.546 661.661 272.546 661.504 272.546Z" fill="#9E303C"/>
<path d="M554.598 329.856L644.692 331.036C645.483 331.047 646.051 330.279 645.808 329.525L635.241 296.56C635.241 296.56 636.799 280.086 638.95 260.264C642.217 230.183 646.562 192.358 646.62 192.459C640.466 175.192 604.105 172.247 604.105 172.247L562.66 174.712L561.203 172.279L549.277 177.824C546.675 179.035 544.18 180.446 541.797 182.044C533.926 187.316 514.937 199.392 511.476 212.871C503.475 244.032 517.028 278.825 517.028 278.825L525.728 272.024C528.002 270.3 530.161 268.814 532.632 267.41L550.092 314.192C550.092 314.192 546.458 316.406 546.306 320.197C546.152 323.991 548.184 328.558 554.598 329.856Z" fill="#FF9461"/>
<path d="M584.98 276.653C584.129 276.653 583.339 276.471 582.692 275.878C581.604 274.884 581.288 273.263 581.486 271.804C581.687 270.342 582.327 268.987 582.896 267.629C588.19 255.027 588.007 240.692 593.012 227.974C594.532 243.52 596.042 259.314 593.183 274.671C591.34 275.305 590.259 276.006 588.211 276.252C587.145 276.38 586.019 276.653 584.98 276.653Z" fill="#F26522"/>
<path d="M564.636 310.972C563.091 310.972 561.558 310.758 560.042 310.234L558.829 309.26C562.455 305.279 566.418 301.239 571.562 299.645C573.598 299.015 575.709 298.801 577.842 298.801C580 298.801 582.179 299.02 584.325 299.239C601.339 300.984 618.354 302.025 635.368 303.773C635.469 305.336 634.371 307.489 633.004 308.259C631.642 309.027 630.044 309.249 628.484 309.425C624.299 309.894 620.086 310.129 615.871 310.129C609.808 310.129 603.744 309.643 597.758 308.671C593.641 308.004 589.497 307.104 585.349 307.104C584.44 307.104 583.529 307.147 582.62 307.245C576.561 307.903 570.506 310.972 564.636 310.972Z" fill="#9E303C"/>
<path d="M678.851 253.056C671.486 236.494 645.553 190.659 645.553 190.659L625.465 215.841L630.153 265.272C630.153 265.272 640.758 253.432 670.414 253.197C677.327 253.141 681.451 259.01 681.451 259.01L678.851 253.056Z" fill="#FF9461"/>
<path d="M558.489 244.287C558.238 244.354 556.721 239.514 555.104 233.476C553.486 227.438 552.378 222.487 552.628 222.421C552.879 222.354 554.395 227.194 556.013 233.232C557.632 239.268 558.74 244.218 558.489 244.287Z" fill="#00476F"/>
<path d="M624.302 212.487C624.347 212.438 625.005 213.002 626.162 214.064C627.29 215.154 628.884 216.783 630.635 218.984C634.141 223.323 638.433 230.111 640.226 238.607C641.125 242.831 641.271 247.002 640.801 250.715C640.337 254.412 639.628 257.664 639.174 260.418C638.696 263.165 638.414 265.401 638.271 266.953C638.13 268.504 638.092 269.369 638.018 269.369C637.962 269.369 637.875 268.502 637.906 266.931C637.936 265.361 638.119 263.089 638.517 260.315C638.889 257.539 639.529 254.259 639.941 250.613C640.351 246.986 640.183 242.931 639.305 238.804C637.557 230.509 633.443 223.788 630.109 219.392C626.769 214.937 624.163 212.624 624.302 212.487Z" fill="#00476F"/>
<path d="M605.651 325.934C605.668 325.998 604.97 326.197 603.69 326.504C603.053 326.668 602.266 326.842 601.339 326.961C600.412 327.089 599.362 327.292 598.185 327.344C595.838 327.57 593.018 327.565 589.91 327.299C586.807 326.974 583.418 326.356 579.968 325.307C576.529 324.218 573.384 322.806 570.644 321.317C567.931 319.775 565.604 318.183 563.798 316.668C562.856 315.958 562.105 315.196 561.414 314.565C560.717 313.943 560.169 313.354 559.735 312.857C558.855 311.879 558.394 311.321 558.443 311.277C558.577 311.147 560.518 313.316 564.208 316.144C566.043 317.574 568.37 319.081 571.058 320.556C573.776 321.978 576.87 323.337 580.246 324.409C583.633 325.437 586.955 326.068 590 326.435C593.049 326.744 595.82 326.82 598.14 326.679C602.785 326.439 605.613 325.75 605.651 325.934Z" fill="#00476F"/>
<path d="M633.521 315.656C633.631 315.633 633.983 316.618 634.216 318.293C634.432 319.958 634.477 322.359 633.73 324.881C633.015 327.414 631.507 329.401 630.19 330.478C628.869 331.577 627.855 331.925 627.81 331.833C627.73 331.7 628.608 331.148 629.738 329.992C630.866 328.849 632.156 326.981 632.828 324.611C634.197 319.836 633.166 315.676 633.521 315.656Z" fill="#00476F"/>
<path d="M628.57 321.989C628.805 321.931 629.284 324.57 628.113 327.548C626.97 330.539 624.838 332.162 624.702 331.963C624.5 331.766 626.188 329.968 627.234 327.208C628.324 324.463 628.29 321.998 628.57 321.989Z" fill="#00476F"/>
<path d="M612.395 262.477C612.587 262.67 610.917 264.559 609.182 267.102C607.431 269.637 606.272 271.873 606.021 271.766C605.79 271.676 606.596 269.196 608.407 266.57C610.205 263.935 612.231 262.294 612.395 262.477Z" fill="#00476F"/>
<path d="M550.73 218.714C550.631 218.832 549.201 217.677 546.734 216.066C544.271 214.454 540.711 212.463 536.51 210.887C532.303 209.323 528.307 208.494 525.39 208.098C522.473 207.699 520.637 207.634 520.639 207.48C520.635 207.375 522.482 207.202 525.464 207.438C528.441 207.668 532.547 208.409 536.839 210.005C541.124 211.611 544.716 213.742 547.114 215.519C549.519 217.295 550.803 218.636 550.73 218.714Z" fill="#00476F"/>
<path d="M645.763 190.085C645.938 190.333 641.064 193.309 636.632 198.628C632.145 203.905 630.045 209.213 629.77 209.083C629.664 209.044 630.048 207.666 631.028 205.579C632.004 203.493 633.641 200.726 635.911 198.023C638.189 195.326 640.636 193.241 642.522 191.923C644.413 190.6 645.705 189.987 645.763 190.085Z" fill="#00476F"/>
<path d="M608.354 175.17C608.383 175.157 608.522 175.442 608.759 176.005C609.028 176.558 609.303 177.414 609.603 178.54C610.172 180.781 610.481 184.235 609.569 188.327C608.629 192.368 606.373 197.076 602.195 200.781C598.053 204.513 591.955 206.725 585.568 206.703C579.165 206.66 573.159 204.471 568.778 201.093C564.343 197.757 561.41 193.588 559.539 189.895C557.701 186.158 556.846 182.874 556.463 180.595C556.277 179.453 556.165 178.562 556.138 177.951C556.094 177.346 556.089 177.026 556.121 177.022C556.215 177.013 556.326 178.285 556.823 180.525C557.311 182.757 558.254 185.963 560.132 189.59C562.042 193.174 564.965 197.199 569.297 200.396C573.567 203.633 579.376 205.718 585.571 205.762C591.749 205.782 597.621 203.672 601.626 200.128C605.672 196.604 607.926 192.079 608.922 188.169C609.89 184.213 609.697 180.843 609.245 178.618C608.799 176.375 608.242 175.211 608.354 175.17Z" fill="#00476F"/>
<path d="M605.982 272.155C606.033 272.019 606.084 271.886 606.134 271.752C606.561 271.324 607.631 269.359 609.142 267.17C610.172 265.661 611.178 264.384 611.786 263.552C611.892 263.48 612.004 263.415 612.122 263.359C612.397 263.223 612.709 263.144 613.016 263.144C613.277 263.144 613.533 263.202 613.759 263.332C614.542 263.782 614.659 264.844 614.688 265.75C614.746 267.617 614.784 269.524 614.842 271.392L605.982 272.155Z" fill="#F26522"/>
<path d="M606.369 271.733C607.468 268.9 608.957 266.686 611.048 264.419C611.345 264.096 611.659 263.778 612.021 263.534C611.413 264.365 610.407 265.643 609.376 267.152C607.866 269.341 606.796 271.305 606.369 271.733Z" fill="#3C6071"/>
<path d="M639.155 259.345C639.6 256.836 640.189 253.955 640.594 250.737C641.064 247.024 640.917 242.853 640.019 238.63C639.762 237.413 639.453 236.231 639.104 235.085C641.656 238.687 643.65 242.725 644.234 247.08C644.868 251.823 641.595 254.87 639.155 259.345Z" fill="#F26522"/>
<path d="M638.328 261.461C640.475 252.896 641.753 245.84 637.936 233.332C638.38 233.898 638.812 234.474 639.23 235.063C639.578 236.209 639.887 237.391 640.144 238.608C641.042 242.831 641.189 247.002 640.719 250.715C640.314 253.933 639.725 256.814 639.28 259.323C639.114 259.63 638.949 259.943 638.792 260.263L638.328 261.461Z" fill="#3C6071"/>
<path d="M626.462 667.188L621.056 748.253L585.812 747.837L580.262 663.559L626.462 667.188Z" fill="#F9B299"/>
<path d="M622.133 737.563L622.14 739.908C622.14 739.908 661.868 755.897 662.284 763.439L583.379 762.976L584.606 736.725C596.305 742.226 608.58 742.909 622.133 737.563Z" fill="#F26522"/>
<path d="M592.708 745.232C591.181 745.642 590.115 747.352 590.46 748.897C590.807 750.442 592.536 751.541 594.072 751.16C595.609 750.779 596.95 748.764 596.435 747.265C595.918 745.769 593.816 744.592 592.415 745.33" fill="white"/>
<path d="M583.379 763.012L583.673 756.697L659.191 759.451C659.191 759.451 662.698 761.002 662.284 763.474L583.379 763.012Z" fill="#00476F"/>
<path d="M622.551 740.206C622.536 740.593 620.606 740.755 618.705 741.984C616.769 743.161 615.784 744.825 615.428 744.67C615.074 744.592 615.661 742.293 617.993 740.848C620.308 739.38 622.637 739.854 622.551 740.206Z" fill="#00476F"/>
<path d="M630.726 743.606C630.813 743.98 629.14 744.627 627.822 746.248C626.456 747.831 626.114 749.592 625.731 749.572C625.368 749.63 625.117 747.372 626.794 745.388C628.451 743.387 630.719 743.239 630.726 743.606Z" fill="#00476F"/>
<path d="M635.27 753.586C634.92 753.665 634.395 751.739 635.398 749.635C636.385 747.522 638.205 746.702 638.366 747.022C638.583 747.34 637.406 748.466 636.611 750.206C635.774 751.927 635.653 753.551 635.27 753.586Z" fill="#00476F"/>
<path d="M620.179 74.4507C622.212 69.3813 619.749 63.2527 615.35 60.0158C610.949 56.7808 605.086 56.085 599.691 56.938C594.298 57.7911 589.24 60.043 584.254 62.2714C579.732 57.7278 572.584 56.0073 566.49 57.9971C560.397 59.9869 555.64 65.595 554.673 71.9314C550.79 70.9464 546.409 72.2729 543.727 75.2478C541.041 78.2226 540.172 82.7173 541.551 86.4783L565.978 95.0594L592.659 141.989C600.458 148.648 613.216 148.467 620.824 141.592C628.433 134.717 629.902 122.044 624.068 113.611C625.576 112.294 626.812 110.703 627.815 108.976C632.046 106.362 635.355 102.283 636.448 97.4125C638.771 87.0964 630.683 75.6815 620.179 74.4507Z" fill="#00476F"/>
<path d="M603.931 172.284C602.413 164.644 601.356 159.414 601.372 159.468C601.372 159.468 615.776 153.859 614.782 133.74C614.291 123.733 610.472 107.959 606.931 95.152C603.745 83.6251 592.999 70.9162 581.616 74.5904L547.2 91.4001C543.743 92.5152 543.137 95.7629 543.954 99.3034L544.01 101.029L557.4 156.438L563.059 181.201C565.562 191.738 575.692 198.622 586.411 197.069C598.271 195.35 606.264 184.039 603.931 172.284Z" fill="#F9B299"/>
<path d="M606.688 108.483C607.012 109.791 606.17 111.145 604.809 111.506C603.452 111.868 602.085 111.105 601.764 109.795C601.44 108.486 602.282 107.133 603.64 106.77C605 106.406 606.367 107.174 606.688 108.483Z" fill="#00476F"/>
<path d="M605.365 104.632C605.125 105.023 602.938 104.019 600.254 104.591C597.563 105.122 595.88 106.918 595.521 106.651C595.345 106.535 595.537 105.881 596.265 105.075C596.979 104.276 598.295 103.367 599.97 103.024C601.646 102.68 603.184 103.002 604.123 103.463C605.085 103.924 605.486 104.453 605.365 104.632Z" fill="#00476F"/>
<path d="M580.582 114.522C580.904 115.83 580.061 117.184 578.702 117.547C577.345 117.909 575.979 117.144 575.655 115.836C575.332 114.527 576.174 113.172 577.531 112.81C578.892 112.447 580.258 113.213 580.582 114.522Z" fill="#00476F"/>
<path d="M579.258 111.061C579.015 111.452 576.828 110.451 574.144 111.02C571.455 111.551 569.772 113.348 569.411 113.08C569.237 112.965 569.427 112.31 570.157 111.506C570.871 110.705 572.187 109.798 573.862 109.453C575.537 109.111 577.074 109.433 578.017 109.892C578.973 110.353 579.378 110.884 579.258 111.061Z" fill="#00476F"/>
<path d="M592.828 128.035C592.785 127.885 594.395 127.245 597.03 126.331C597.701 126.116 598.32 125.844 598.339 125.351C598.395 124.822 597.954 124.142 597.453 123.414C596.459 121.888 595.42 120.291 594.328 118.615C589.951 111.766 586.627 106.078 586.904 105.905C587.18 105.729 590.956 111.138 595.333 117.986C596.396 119.68 597.411 121.292 598.38 122.835C598.803 123.562 599.436 124.352 599.3 125.454C599.222 126.005 598.798 126.482 598.384 126.694C597.972 126.92 597.587 127.008 597.252 127.101C594.558 127.818 592.871 128.185 592.828 128.035Z" fill="#00476F"/>
<path d="M601.564 159.411C601.564 159.411 588.642 163.002 574.028 157.926C574.028 157.926 583.49 170.287 602.594 164.378L601.564 159.411Z" fill="#F79570"/>
<path d="M579.695 107.192C579.518 107.967 576.753 107.947 573.603 108.721C570.436 109.433 567.973 110.683 567.469 110.071C567.239 109.774 567.604 109.024 568.559 108.18C569.506 107.336 571.071 106.456 572.965 106.008C574.859 105.563 576.654 105.654 577.875 105.986C579.108 106.315 579.769 106.827 579.695 107.192Z" fill="#00476F"/>
<path d="M604.06 96.1375C603.629 96.8641 601.306 96.6906 598.666 97.2147C596.011 97.6575 593.889 98.6442 593.242 98.1129C592.951 97.8508 593.175 97.1659 594.028 96.3833C594.868 95.6062 596.376 94.7983 598.194 94.4658C600.014 94.135 601.698 94.3591 602.745 94.7911C603.807 95.2248 604.245 95.7887 604.06 96.1375Z" fill="#00476F"/>
<path d="M555.59 78.4158C556.384 82.3178 558.984 85.8131 562.494 87.6963C566.004 89.5777 570.354 89.8108 574.045 88.3126C576.907 87.1523 579.859 84.9709 582.763 86.0227C585.819 87.127 586.779 91.1898 589.613 92.7766C593.665 95.0448 598.548 91.1157 603.175 91.5043C606.749 91.8043 609.52 94.5857 612.318 96.8286C615.117 99.0714 618.999 100.951 622.158 99.2521C621.316 96.2701 620.463 93.2573 618.96 90.5482C617.458 87.8373 615.226 85.4155 612.339 84.2859C610.758 83.6678 609.025 83.4509 607.514 82.6756C604.252 80.9984 602.79 77.2067 600.411 74.4145C597.344 70.8161 592.456 68.857 587.753 69.3414C583.838 69.7444 580.128 71.7144 576.197 71.5463C573.293 71.4234 570.508 70.1312 567.602 70.18C561.937 70.2757 557.685 75.235 554.542 79.9484" fill="#00476F"/>
<path d="M574.782 82.578C572.194 82.3864 566.87 81.8424 565.12 79.9954C561.321 75.985 555.654 73.8831 550.586 75.2277C545.522 76.5705 541.441 81.6382 541.515 87.2679C535.323 88.6017 530.082 93.7507 528.322 100.228C526.562 106.707 528.356 114.251 532.837 119.214C534.011 120.513 535.804 123.508 535.804 123.508C535.804 123.508 533.48 126.41 532.587 128.384C528.457 137.527 539.668 141.03 539.668 141.03C539.699 147.176 545.363 147.147 548.999 147.129C552.495 147.113 554.645 156.802 557.472 156.426L554.6 126.494C554.949 126.633 555.377 126.723 555.925 126.734C562.776 126.855 560.987 113.895 558.769 110.542C560.7 107.949 562.652 105.319 563.904 102.274C565.156 99.2286 565.236 91.6163 564.171 88.4174C566.557 88.0668 575.919 82.6629 574.782 82.578Z" fill="#00476F"/>
<path d="M555.463 128.1C554.397 123.999 549.308 122.17 546.145 124.991C544.41 126.54 543.376 129.146 544.471 133.507C547.39 145.143 558.467 139.813 558.404 139.475C558.364 139.264 556.712 132.904 555.463 128.1Z" fill="#F9B299"/>
<path d="M554.027 135.945C553.965 135.922 553.86 136.139 553.557 136.381C553.262 136.618 552.713 136.867 552.05 136.793C550.707 136.65 549.183 134.959 548.599 132.875C548.305 131.825 548.274 130.76 548.44 129.831C548.581 128.892 548.983 128.158 549.574 127.892C550.154 127.596 550.685 127.856 550.909 128.149C551.148 128.434 551.131 128.686 551.198 128.691C551.238 128.711 551.399 128.433 551.184 127.975C551.079 127.757 550.873 127.516 550.544 127.361C550.208 127.204 549.769 127.193 549.348 127.346C548.468 127.634 547.868 128.662 547.685 129.681C547.454 130.717 547.464 131.919 547.795 133.101C548.457 135.425 550.208 137.319 552.012 137.382C552.885 137.391 553.504 136.974 553.788 136.611C554.077 136.233 554.072 135.956 554.027 135.945Z" fill="#F79570"/>
<path d="M617.841 111.819C617.769 111.731 618.893 111.008 620.377 109.191C621.832 107.391 623.599 104.326 624.01 100.153C624.208 98.0908 624.109 95.7685 623.362 93.4497C622.616 91.1472 621.284 88.8302 619.229 87.0302C615.221 83.3848 608.577 81.695 602.618 83.7969C602.073 83.9704 601.57 84.2433 601.055 84.4566C600.56 84.715 600.094 85.006 599.634 85.2644L598.917 85.6675L598.906 84.8704C598.89 83.4698 598.362 82.1125 597.446 81.0715C596.537 80.0269 595.358 79.2317 594.108 78.6877C591.568 77.569 588.841 77.5509 586.349 78.1202C581.359 79.2516 577.128 81.5324 573.134 81.9914C569.174 82.4975 565.889 81.5143 564.117 80.1805C563.203 79.5425 562.69 78.8305 562.35 78.3732C562.059 77.8708 561.922 77.6069 561.949 77.5925C562.043 77.5147 562.531 78.7003 564.318 79.8913C566.068 81.0787 569.236 81.9245 573.047 81.3552C574.941 81.0751 576.962 80.3992 579.114 79.604C581.271 78.816 583.578 77.8708 586.17 77.2924C587.466 77.0159 588.827 76.8117 590.255 76.8822C591.672 76.9581 593.101 77.2798 594.466 77.8527C595.823 78.4347 597.119 79.2913 598.149 80.4697C599.19 81.6354 599.831 83.2366 599.846 84.8723L599.118 84.4801C599.609 84.1999 600.106 83.8891 600.634 83.6144C601.181 83.3867 601.72 83.0975 602.298 82.9113C608.638 80.6865 615.589 82.4957 619.811 86.3868C621.969 88.3097 623.362 90.793 624.109 93.222C624.859 95.669 624.922 98.0908 624.671 100.227C624.158 104.547 622.233 107.657 620.657 109.426C619.86 110.319 619.161 110.943 618.642 111.297C618.134 111.665 617.859 111.846 617.841 111.819Z" fill="#81AEBB"/>
<path d="M615.601 70.9344C615.534 71.0663 614.364 70.0199 611.856 69.6494C610.62 69.4885 609.056 69.4939 607.408 70.0524C605.762 70.5639 604.025 71.6537 602.829 73.3814L602.386 74.0212L602.113 73.2965C600.651 69.3981 596.38 65.6914 591.09 65.1112C587.114 64.654 583.499 66.445 580.49 68.1746C577.463 69.9476 574.696 71.6808 572.092 72.5212C569.515 73.4266 567.236 73.526 565.732 73.2676C564.98 73.1356 564.413 72.9585 564.046 72.8031C563.679 72.6441 563.494 72.5483 563.505 72.5175C563.536 72.4326 564.311 72.7579 565.779 72.9043C567.239 73.0417 569.401 72.8483 571.866 71.894C574.36 71.0048 577.006 69.2662 580.055 67.4246C581.591 66.5263 583.248 65.6046 585.119 64.9522C586.973 64.2835 589.075 63.9509 591.188 64.1751C596.87 64.8022 601.374 68.7963 602.872 73.0073L602.158 72.9224C603.523 71.0301 605.44 69.9078 607.213 69.4162C608.991 68.8795 610.647 68.9427 611.934 69.1795C613.231 69.4343 614.173 69.8952 614.768 70.2638C615.351 70.6524 615.622 70.9054 615.601 70.9344Z" fill="#81AEBB"/>
<path d="M592 133.353C591.181 132.562 589.955 132.303 588.824 132.432C587.761 132.553 586.455 133.502 585.781 134.655L585.734 134.723L585.634 134.872L585.678 134.841C585.43 135.251 585.285 135.732 585.338 136.205C585.452 137.273 586.263 138.17 587.226 138.649C588.75 139.413 590.774 139.193 591.96 137.964C593.145 136.735 593.228 134.539 592 133.353Z" fill="#F26522"/>
<path d="M592.718 139.03C592.577 139.057 592.4 138.493 591.919 137.738C591.449 136.984 590.607 136.037 589.403 135.488C588.196 134.94 586.929 134.928 586.054 135.069C585.165 135.202 584.626 135.441 584.554 135.318C584.489 135.222 584.932 134.756 585.893 134.423C586.831 134.089 588.335 133.972 589.792 134.631C591.247 135.295 592.147 136.505 592.512 137.434C592.891 138.376 592.832 139.018 592.718 139.03Z" fill="#00476F"/>
<path d="M555.702 141.267C555.79 141.211 556.219 142.171 555.541 143.541C555.203 144.191 554.581 144.91 553.614 145.283C552.649 145.67 551.413 145.525 550.428 144.903C549.441 144.283 548.776 143.231 548.707 142.192C548.626 141.16 549.006 140.287 549.447 139.702C550.39 138.5 551.442 138.473 551.427 138.576C551.489 138.717 550.634 138.986 550 140.074C549.696 140.605 549.465 141.334 549.569 142.098C549.66 142.857 550.166 143.622 550.929 144.106C551.697 144.585 552.604 144.712 553.327 144.464C554.062 144.229 554.619 143.707 554.968 143.203C555.673 142.16 555.546 141.272 555.702 141.267Z" fill="#F26522"/>
<path d="M549.698 140.547C549.799 140.594 549.643 141.161 548.855 141.546C548.472 141.724 547.941 141.837 547.355 141.695C546.764 141.557 546.199 141.118 545.877 140.52C545.552 139.92 545.492 139.208 545.702 138.639C545.901 138.069 546.287 137.684 546.647 137.462C547.399 137.014 547.959 137.194 547.943 137.305C547.954 137.446 547.5 137.54 547.05 137.99C546.589 138.425 546.251 139.267 546.705 140.07C547.129 140.89 548.019 141.068 548.635 140.919C549.258 140.789 549.586 140.46 549.698 140.547Z" fill="#F26522"/>
<path d="M569.479 301.029C569.479 301.029 614.226 303.623 640.676 303.867C661.165 304.057 670.294 298.613 674.391 285.451C677.83 274.399 670.44 253.207 670.44 253.207C656.587 253.275 648.038 255.186 639.121 259.364L641.498 269.055L569.351 275.275L569.479 301.029Z" fill="#F9B299"/>
<path d="M656.518 279.408C656.27 279.576 654.166 275.656 649.764 272.705C645.406 269.683 640.988 269.159 641.054 268.866C641.065 268.756 642.177 268.729 643.924 269.117C645.667 269.499 648.023 270.384 650.295 271.928C652.56 273.477 654.244 275.345 655.236 276.827C656.237 278.313 656.617 279.357 656.518 279.408Z" fill="#F79570"/>
<path d="M553.216 259.339C553.216 259.339 539.374 262.657 529.212 269.455L540.021 298.847C543.631 308.492 554.691 313.233 563.451 308.228C577.062 300.453 581.86 277.75 581.86 277.75L596.818 212.908L572.041 197.383L553.216 259.339Z" fill="#F9B299"/>
<path d="M572.168 197.311L573.168 175.986L567.636 154.387C567.329 153.189 567.177 151.698 568.145 150.968C569.159 150.207 570.676 150.245 571.487 151.075C573.002 152.623 580.227 171.595 580.227 171.595C580.227 171.595 591.19 165.003 593.148 164.683C595.105 164.362 597.545 170.263 597.698 170.729C597.852 171.193 597.716 174.692 597.716 174.692C597.716 174.692 604.497 174.895 605.105 175.825C605.712 176.756 605.887 181.578 605.887 181.578C605.887 181.578 608.755 182.496 609.218 184.672C609.681 186.848 610.602 190.423 609.251 191.207C607.899 191.992 605.043 193.561 605.043 193.561C605.043 193.561 603.894 204.627 603.597 205.633C603.301 206.64 596.945 212.835 596.945 212.835L572.168 197.311Z" fill="#F9B299"/>
<path d="M549.086 308.681C549.113 308.622 549.76 309.066 551.161 309.522C552.549 309.986 554.745 310.407 557.55 310.026C560.324 309.652 563.743 308.434 566.801 305.761C569.814 303.034 572.865 299.419 575.399 294.874C576.662 292.602 577.795 290.104 578.748 287.408C579.724 284.715 580.358 281.794 581.066 278.743C582.485 272.653 584.014 266.096 585.637 259.129C588.899 245.186 592.546 229.599 596.474 212.813L596.503 212.687L596.596 212.596C597.84 211.375 599.092 210.119 600.329 208.828C600.947 208.181 601.563 207.525 602.152 206.851C602.439 206.517 602.743 206.168 602.973 205.832C603.184 205.613 603.191 205.177 603.276 204.715C603.766 201.097 604.147 197.359 604.547 193.594L604.574 193.354L604.784 193.237C605.915 192.602 607.064 191.959 608.228 191.305C608.492 191.149 608.879 190.961 609.042 190.831C609.184 190.715 609.313 190.511 609.365 190.226C609.499 189.674 609.455 189.002 609.387 188.353C609.222 187.081 608.924 185.601 608.586 184.424C608.134 183.327 606.894 182.537 605.709 182.102L605.396 181.988L605.382 181.673C605.338 180.627 605.268 179.548 605.149 178.478C605.089 177.943 605.02 177.403 604.908 176.891C604.852 176.647 604.784 176.369 604.702 176.221L604.59 176.116L604.287 175.988C602.277 175.435 599.909 175.353 597.668 175.241L597.197 175.218L597.211 174.753C597.243 173.638 597.292 172.393 597.24 171.222C597.271 170.913 596.989 170.445 596.821 170.011C596.625 169.575 596.418 169.145 596.199 168.722C595.762 167.88 595.284 167.056 594.722 166.335C594.44 165.983 594.133 165.641 593.804 165.433C593.435 165.214 593.28 165.164 592.843 165.325C592.002 165.619 591.135 166.073 590.294 166.492C586.92 168.247 583.644 170.165 580.43 172.073L579.958 172.353L579.756 171.845C578.046 167.566 576.36 163.34 574.696 159.176C573.864 157.092 573.04 155.025 572.221 152.974C571.921 151.936 571.197 151.351 570.235 151.116C569.279 150.87 568.33 151.164 567.882 151.978C567.656 152.361 567.559 152.82 567.607 153.265C567.66 153.668 567.859 154.277 567.978 154.77C568.251 155.813 568.524 156.85 568.795 157.882C569.339 159.95 569.876 161.997 570.409 164.025C571.473 168.081 572.52 172.06 573.541 175.957L573.559 176.02L573.555 176.084C573.196 183.504 572.85 190.627 572.523 197.408L572.52 197.458L572.505 197.504C565.675 219.728 560.011 238.161 556.039 251.081C554.045 257.482 552.478 262.518 551.394 265.993C550.856 267.677 550.44 268.98 550.145 269.904C549.856 270.786 549.677 271.234 549.677 271.234C549.677 271.234 549.778 270.762 550.028 269.87C550.299 268.937 550.678 267.621 551.168 265.924C552.202 262.433 553.702 257.379 555.609 250.949C559.502 238.007 565.059 219.54 571.757 197.276L571.739 197.372C572.048 190.589 572.371 183.466 572.706 176.046L572.72 176.172C571.688 172.281 570.635 168.303 569.559 164.249C569.022 162.222 568.48 160.176 567.933 158.11C567.66 157.078 567.387 156.041 567.109 155C566.98 154.445 566.816 154.029 566.715 153.36C566.646 152.728 566.78 152.074 567.103 151.521C567.43 150.966 567.933 150.516 568.569 150.29C569.201 150.08 569.834 150.098 570.436 150.23C571.034 150.373 571.62 150.64 572.091 151.074C572.576 151.472 572.903 152.157 573.065 152.632C573.886 154.683 574.714 156.749 575.549 158.831C577.217 162.995 578.908 167.221 580.622 171.5L579.949 171.272C583.179 169.351 586.45 167.436 589.866 165.655C590.737 165.223 591.572 164.777 592.548 164.432C592.812 164.354 593.074 164.26 593.457 164.304C593.786 164.351 594.09 164.482 594.314 164.645C594.8 164.96 595.138 165.354 595.46 165.751C596.085 166.555 596.58 167.416 597.036 168.29C597.262 168.731 597.477 169.174 597.677 169.626C597.845 170.092 598.147 170.475 598.18 171.16C598.236 172.44 598.185 173.645 598.151 174.789L597.695 174.302C600.019 174.428 602.271 174.466 604.597 175.102L605.062 175.303L605.528 175.776C605.705 176.123 605.752 176.398 605.826 176.691C605.949 177.264 606.02 177.82 606.083 178.373C606.202 179.481 606.273 180.564 606.32 181.639L605.994 181.211C607.391 181.74 608.776 182.552 609.446 184.066C609.884 185.556 610.113 186.81 610.314 188.248C610.381 188.955 610.448 189.671 610.269 190.444C610.193 190.82 609.994 191.259 609.613 191.563C609.239 191.836 609.002 191.921 608.691 192.109C607.522 192.765 606.365 193.41 605.228 194.046L605.467 193.688C605.058 197.466 604.677 201.185 604.174 204.848L604.061 205.55C604.043 205.765 603.873 206.164 603.726 206.336C603.439 206.755 603.137 207.091 602.835 207.447C602.226 208.14 601.603 208.799 600.981 209.452C599.729 210.751 598.474 212.007 597.22 213.234L597.341 213.017C593.367 229.793 589.676 245.368 586.374 259.301C584.719 266.262 583.159 272.812 581.712 278.895C580.99 281.926 580.329 284.89 579.322 287.61C578.343 290.336 577.177 292.855 575.883 295.145C573.28 299.726 570.167 303.353 567.085 306.084C563.919 308.793 560.422 309.983 557.59 310.319C554.725 310.662 552.498 310.183 551.114 309.665C550.413 309.406 549.903 309.166 549.576 308.969C549.245 308.788 549.079 308.692 549.086 308.681Z" fill="#F79570"/>
<path d="M597.802 174.713C597.797 174.847 597.192 174.913 596.237 174.959C595.287 175.013 593.978 175.042 592.635 175.385C591.302 175.73 590.217 176.401 589.57 177.023C588.909 177.641 588.62 178.165 588.486 178.107C588.379 178.073 588.453 177.415 589.071 176.582C589.675 175.748 590.88 174.863 592.399 174.474C593.911 174.089 595.301 174.18 596.263 174.294C597.23 174.42 597.81 174.586 597.802 174.713Z" fill="#F79570"/>
<path d="M592.147 174.91C591.903 174.818 591.887 174.259 592.111 173.663C592.333 173.065 592.713 172.654 592.957 172.747C593.201 172.837 593.217 173.395 592.993 173.992C592.769 174.59 592.391 175 592.147 174.91Z" fill="#F79570"/>
<path d="M606.14 181.495C606.136 181.768 603.72 182.048 600.776 182.236C599.321 182.366 598.224 182.89 597.792 183.673C597.313 184.412 597.474 185.025 597.336 185.064C597.248 185.146 596.76 184.454 597.197 183.375C597.4 182.863 597.842 182.299 598.489 181.94C599.126 181.571 599.897 181.394 600.664 181.302C603.7 181.105 606.147 181.247 606.14 181.495Z" fill="#F79570"/>
<path d="M605.045 187.931C605.307 187.944 605.457 189.279 605.383 190.915C605.308 192.553 605.037 193.868 604.779 193.857C604.519 193.847 604.369 192.511 604.441 190.874C604.515 189.238 604.784 187.919 605.045 187.931Z" fill="#F79570"/>
<path d="M625.599 235.637C625.662 235.888 622.803 236.813 619.218 237.701C615.628 238.59 612.67 239.105 612.606 238.852C612.545 238.601 615.402 237.677 618.992 236.788C622.577 235.899 625.538 235.384 625.599 235.637Z" fill="white"/>
<path d="M518.466 204.787C518.509 204.825 517.794 205.483 516.859 206.936C515.934 208.385 514.907 210.71 514.41 213.76C513.879 216.804 513.854 220.503 514.085 224.588C514.284 228.678 514.614 233.169 515.113 237.868C516.106 247.271 517.631 255.706 518.929 261.762C519.57 264.793 520.15 267.233 520.55 268.917C520.73 269.667 520.882 270.305 521.016 270.858C521.119 271.305 521.153 271.541 521.153 271.541C521.153 271.541 521.068 271.317 520.942 270.878C520.79 270.331 520.613 269.696 520.407 268.953C519.964 267.278 519.344 264.845 518.668 261.82C517.302 255.769 515.731 247.327 514.739 237.908C514.239 233.201 513.917 228.701 513.738 224.604C513.528 220.512 513.577 216.782 514.146 213.713C514.685 210.637 515.762 208.295 516.738 206.855C517.719 205.412 518.466 204.787 518.466 204.787Z" fill="white"/>
<path d="M556.334 180.14C556.34 180.151 556.201 180.227 555.928 180.36C555.561 180.536 555.169 180.722 554.735 180.93C553.701 181.421 552.208 182.148 550.415 183.14C546.803 185.083 541.99 188.081 536.834 191.627C531.674 195.175 527.099 198.527 523.76 200.915C522.223 202.003 520.902 202.937 519.791 203.725C519.393 203.994 519.035 204.24 518.699 204.47C518.446 204.636 518.311 204.719 518.302 204.708C518.294 204.699 518.415 204.594 518.654 204.408C518.977 204.161 519.323 203.897 519.704 203.608C520.797 202.792 522.095 201.826 523.602 200.7C526.902 198.258 531.453 194.871 536.62 191.316C541.786 187.765 546.635 184.792 550.289 182.905C552.103 181.942 553.62 181.248 554.675 180.796C555.12 180.613 555.523 180.447 555.899 180.292C556.181 180.18 556.331 180.127 556.334 180.14Z" fill="white"/>
<path d="M642.621 191.9C642.612 191.907 642.509 191.828 642.32 191.671C642.061 191.447 641.792 191.215 641.506 190.966C640.796 190.362 639.737 189.52 638.342 188.606C635.58 186.731 631.456 184.619 626.723 182.725C621.984 180.832 617.558 179.49 614.335 178.606C612.723 178.158 611.411 177.829 610.502 177.604C610.135 177.511 609.79 177.422 609.459 177.337C609.221 177.274 609.098 177.232 609.1 177.22C609.101 177.207 609.232 177.223 609.474 177.263C609.812 177.326 610.161 177.391 610.535 177.462C611.453 177.641 612.779 177.932 614.402 178.347C617.652 179.168 622.107 180.476 626.864 182.376C631.615 184.277 635.748 186.442 638.49 188.385C641.26 190.299 642.621 191.9 642.621 191.9Z" fill="white"/>
<path d="M556.936 329.924C556.927 329.945 556.674 329.867 556.231 329.681C555.79 329.495 555.165 329.188 554.439 328.722C553.02 327.823 551.088 326.06 550.508 323.399C549.909 320.791 550.472 318.33 551.207 316.786C551.572 316.002 551.957 315.416 552.254 315.039C552.55 314.659 552.74 314.473 552.758 314.487C552.819 314.531 552.104 315.333 551.453 316.893C550.797 318.425 550.3 320.807 550.876 323.314C551.424 325.843 553.229 327.56 554.589 328.501C555.977 329.466 556.969 329.858 556.936 329.924Z" fill="white"/>
<path d="M551.059 310.298C551.158 310.27 551.543 311.287 551.917 312.568C552.293 313.852 552.516 314.914 552.414 314.943C552.317 314.972 551.932 313.956 551.556 312.673C551.182 311.392 550.959 310.329 551.059 310.298Z" fill="white"/>
<path d="M575.66 715.548L630.79 715.271L629.789 524.677L629.275 330.808L554.612 329.879L541.189 355.187C535.775 365.396 532.093 376.491 530.862 387.982C529.923 396.74 536.485 425.305 538.778 432.572L559.329 497.745L575.66 715.548Z" fill="#00476F"/>
<path d="M645.211 331.073L705.786 496.206C712.898 518.336 710.521 540.28 698.318 560.724L627.987 698L588.445 648.526L647.291 525.554L595.414 441.506L604.144 331.246L628.578 330.854L645.211 331.073Z" fill="#00476F"/>
<path d="M623.922 386.386C623.922 386.386 623.968 386.672 624.009 387.232C624.045 387.834 624.099 388.66 624.165 389.72C624.284 391.954 624.455 395.171 624.676 399.294C625.081 407.654 625.661 419.673 626.377 434.511C627.063 449.396 627.877 467.098 628.782 486.749C629.225 496.581 629.688 506.899 630.17 517.596C630.514 522.944 630.356 528.396 630.421 533.925C630.436 539.455 630.454 545.065 630.472 550.744C630.548 596.165 630.617 637.277 630.665 667.085C630.647 681.937 630.629 693.972 630.618 702.34C630.591 706.468 630.571 709.688 630.557 711.926C630.541 712.987 630.526 713.814 630.517 714.416C630.505 714.978 630.472 715.266 630.472 715.266C630.472 715.266 630.438 714.98 630.421 714.416C630.409 713.814 630.391 712.987 630.367 711.926C630.34 709.688 630.3 706.468 630.251 702.342C630.192 693.974 630.107 681.941 630 667.09C629.881 637.286 629.715 596.177 629.53 550.763C629.516 545.085 629.5 539.475 629.485 533.945C629.424 528.416 629.586 522.965 629.248 517.619C628.786 506.924 628.339 496.604 627.916 486.772C627.087 467.122 626.34 449.417 625.713 434.534C625.122 419.694 624.642 407.671 624.309 399.31C624.166 395.184 624.052 391.963 623.975 389.729C623.949 388.665 623.928 387.837 623.912 387.235C623.903 386.675 623.922 386.386 623.922 386.386Z" fill="#81AEBB"/>
<path d="M622.78 334.361C622.845 334.354 622.979 334.994 623.163 336.156C623.351 337.32 623.575 339.008 623.814 341.097C624.298 345.277 624.804 351.073 625.097 357.491C625.384 363.911 625.4 369.728 625.297 373.934C625.245 376.038 625.173 377.74 625.093 378.915C625.014 380.09 624.938 380.738 624.871 380.737C624.735 380.733 624.699 378.132 624.632 373.932C624.565 369.732 624.443 363.934 624.157 357.533C623.866 351.135 623.465 345.348 623.152 341.16C622.841 336.971 622.644 334.378 622.78 334.361Z" fill="#81AEBB"/>
<path d="M610.707 338.052C610.803 338.169 609.767 338.639 609.483 340.112C609.351 340.815 609.5 341.712 610.185 342.314C610.837 342.921 611.979 343.226 612.895 342.809C613.81 342.386 614.325 341.325 614.292 340.432C614.285 339.52 613.703 338.822 613.083 338.464C611.782 337.716 610.752 338.195 610.725 338.043C610.7 337.994 610.898 337.804 611.365 337.669C611.824 337.535 612.576 337.501 613.391 337.873C614.186 338.211 615.089 339.12 615.158 340.387C615.249 341.593 614.636 343.02 613.288 343.665C611.918 344.264 610.438 343.796 609.584 342.941C608.67 342.061 608.572 340.783 608.834 339.959C609.087 339.098 609.603 338.551 610.006 338.291C610.412 338.027 610.687 338.001 610.707 338.052Z" fill="#81AEBB"/>
<path d="M581.533 334.751C581.583 334.739 581.805 335.342 582.028 336.481C582.254 337.618 582.393 339.315 582.187 341.393C581.99 343.47 581.361 345.922 580.101 348.394C578.851 350.865 576.908 353.325 574.303 355.222C571.672 357.084 568.717 358.139 565.977 358.533C563.232 358.936 560.705 358.747 558.676 358.271C556.641 357.8 555.079 357.126 554.072 356.549C553.066 355.974 552.563 355.569 552.594 355.526C552.683 355.342 554.815 356.871 558.808 357.619C562.704 358.396 568.712 358.044 573.754 354.458C578.76 350.827 581.017 345.25 581.527 341.31C582.095 337.289 581.328 334.776 581.533 334.751Z" fill="#81AEBB"/>
<path d="M652.588 350.63C652.59 350.721 651.22 350.824 649.117 350.218C647.022 349.631 644.264 348.152 642.003 345.669C639.748 343.177 638.542 340.289 638.161 338.149C637.761 335.995 637.996 334.643 638.087 334.654C638.253 334.652 638.262 335.98 638.808 337.997C639.339 340.009 640.568 342.674 642.699 345.037C644.844 347.384 647.378 348.866 649.33 349.589C651.284 350.325 652.607 350.464 652.588 350.63Z" fill="#81AEBB"/>
<path d="M674.278 528.606C674.341 528.689 673.235 529.793 671.083 531.147C670.004 531.805 668.637 532.524 666.971 532.943C665.321 533.372 663.324 533.429 661.423 532.795C657.575 531.526 655.173 528.633 653.702 526.652C652.231 524.603 651.49 523.242 651.582 523.175C651.699 523.09 652.643 524.328 654.224 526.24C655.804 528.096 658.188 530.747 661.71 531.899C665.245 533.081 668.634 531.693 670.754 530.568C672.928 529.401 674.188 528.479 674.278 528.606Z" fill="#81AEBB"/>
<path d="M660.283 539.117C660.072 539.267 657.518 536.038 654.58 531.906C651.639 527.773 649.427 524.301 649.64 524.149C649.852 523.999 652.407 527.227 655.346 531.362C658.285 535.494 660.495 538.967 660.283 539.117Z" fill="#81AEBB"/>
<path d="M567.543 392.753C567.303 392.851 566.659 391.81 566.106 390.429C565.555 389.05 565.304 387.852 565.544 387.756C565.786 387.658 566.428 388.699 566.981 390.08C567.532 391.461 567.785 392.659 567.543 392.753Z" fill="#F9F9F9"/>
<path d="M602.556 397.789C602.294 397.789 602.084 396.893 602.084 395.79C602.084 394.684 602.294 393.79 602.556 393.79C602.814 393.79 603.024 394.684 603.024 395.79C603.024 396.893 602.814 397.789 602.556 397.789Z" fill="#F9F9F9"/>
<path d="M588.334 416.813C588.076 416.829 587.79 415.725 587.696 414.344C587.602 412.965 587.736 411.832 587.996 411.814C588.256 411.796 588.542 412.902 588.634 414.281C588.728 415.661 588.594 416.795 588.334 416.813Z" fill="#F9F9F9"/>
<path d="M562.11 430.761C561.897 430.92 561.151 430.255 560.184 429.559C559.224 428.852 558.36 428.348 558.445 428.093C558.516 427.851 559.642 427.997 560.737 428.798C561.836 429.591 562.32 430.618 562.11 430.761Z" fill="#F9F9F9"/>
<path d="M608.393 448.446C608.176 448.302 608.45 447.516 609 446.688C609.553 445.858 610.176 445.304 610.393 445.448C610.608 445.591 610.336 446.381 609.784 447.209C609.231 448.038 608.608 448.591 608.393 448.446Z" fill="#F9F9F9"/>
<path d="M579.563 453.456C579.302 453.456 579.093 451.963 579.093 450.121C579.093 448.282 579.302 446.789 579.563 446.789C579.823 446.789 580.034 448.282 580.034 450.121C580.034 451.963 579.823 453.456 579.563 453.456Z" fill="#F9F9F9"/>
<path d="M570.311 473.768C570.158 473.976 569.214 473.551 568.2 472.814C567.188 472.078 566.491 471.314 566.644 471.101C566.796 470.893 567.739 471.316 568.753 472.053C569.765 472.789 570.463 473.557 570.311 473.768Z" fill="#F9F9F9"/>
<path d="M599.25 480.82C599.355 481.056 598.769 481.548 597.942 481.915C597.114 482.285 596.357 482.39 596.252 482.152C596.145 481.915 596.731 481.423 597.558 481.056C598.388 480.688 599.143 480.581 599.25 480.82Z" fill="#F9F9F9"/>
<path d="M579.751 513.767C579.519 513.883 578.583 512.486 577.665 510.644C576.744 508.805 576.185 507.218 576.418 507.102C576.651 506.986 577.586 508.384 578.506 510.225C579.426 512.063 579.984 513.65 579.751 513.767Z" fill="#F9F9F9"/>
<path d="M611.5 510.742C611.271 510.617 611.683 509.399 612.418 508.02C613.154 506.639 613.938 505.62 614.168 505.741C614.397 505.862 613.985 507.082 613.25 508.463C612.514 509.844 611.73 510.863 611.5 510.742Z" fill="#F9F9F9"/>
<path d="M597.697 538.765C597.429 538.725 597.451 537.299 597.174 535.604C596.914 533.903 596.455 532.553 596.697 532.434C596.914 532.311 597.814 533.591 598.103 535.458C598.405 537.319 597.942 538.816 597.697 538.765Z" fill="#F9F9F9"/>
<path d="M582.852 554.726C582.661 554.903 581.759 554.224 580.837 553.212C579.917 552.2 579.328 551.236 579.518 551.061C579.711 550.886 580.613 551.565 581.535 552.579C582.453 553.591 583.044 554.553 582.852 554.726Z" fill="#F9F9F9"/>
<path d="M618.871 560.797C618.685 560.615 619.348 559.641 620.353 558.621C621.36 557.6 622.323 556.921 622.507 557.103C622.694 557.286 622.03 558.262 621.024 559.281C620.019 560.3 619.055 560.978 618.871 560.797Z" fill="#F9F9F9"/>
<path d="M597.994 584.814C597.736 584.774 597.732 583.397 597.985 581.738C598.235 580.077 598.648 578.761 598.907 578.801C599.164 578.839 599.167 580.218 598.914 581.879C598.663 583.538 598.249 584.852 597.994 584.814Z" fill="#F9F9F9"/>
<path d="M584.207 596.407C583.983 596.537 583.191 595.605 582.441 594.325C581.693 593.044 581.266 591.9 581.49 591.77C581.714 591.638 582.504 592.57 583.254 593.851C584.003 595.131 584.431 596.275 584.207 596.407Z" fill="#F9F9F9"/>
<path d="M618.064 611.091C618.215 611.303 617.294 612.221 616.005 613.142C614.72 614.064 613.553 614.641 613.401 614.427C613.251 614.216 614.171 613.298 615.459 612.378C616.746 611.456 617.912 610.88 618.064 611.091Z" fill="#F9F9F9"/>
<path d="M589.707 630.1C589.456 630.007 589.779 628.552 589.929 626.752C590.094 624.956 590.032 623.467 590.298 623.422C590.542 623.367 591.042 624.896 590.865 626.836C590.699 628.778 589.94 630.195 589.707 630.1Z" fill="#F9F9F9"/>
<path d="M600.906 657.37C600.702 657.533 599.939 656.917 599.203 655.999C598.468 655.079 598.036 654.198 598.238 654.038C598.441 653.875 599.202 654.489 599.937 655.409C600.675 656.329 601.106 657.208 600.906 657.37Z" fill="#F9F9F9"/>
<path d="M588.645 675.724C588.43 675.872 587.436 674.797 586.424 673.326C585.412 671.851 584.765 670.54 584.98 670.392C585.193 670.246 586.187 671.318 587.201 672.792C588.211 674.264 588.86 675.577 588.645 675.724Z" fill="#F9F9F9"/>
<path d="M622.516 652.79C622.273 652.7 622.3 652.027 622.574 651.292C622.853 650.556 623.272 650.034 623.516 650.124C623.758 650.215 623.733 650.887 623.455 651.622C623.18 652.358 622.759 652.882 622.516 652.79Z" fill="#F9F9F9"/>
<path d="M607.606 696.449C607.367 696.322 607.821 695.035 608.173 693.427C608.536 691.818 608.67 690.461 608.938 690.448C609.189 690.427 609.483 691.88 609.089 693.631C608.708 695.382 607.822 696.573 607.606 696.449Z" fill="#F9F9F9"/>
<path d="M617.531 417.03C617.296 417.141 616.721 416.414 616.251 415.406C615.78 414.399 615.588 413.493 615.823 413.383C616.06 413.273 616.633 413.999 617.103 415.008C617.574 416.015 617.768 416.92 617.531 417.03Z" fill="#F9F9F9"/>
<path d="M592.323 360.801C592.466 361.029 591.194 362.047 589.851 363.492C588.493 364.926 587.561 366.261 587.322 366.133C587.098 366.025 587.711 364.389 589.164 362.849C590.606 361.3 592.2 360.583 592.323 360.801Z" fill="#F9F9F9"/>
<path d="M614.587 360.095C614.325 360.148 613.898 359.074 613.273 357.836C612.658 356.591 612.055 355.606 612.253 355.429C612.438 355.255 613.434 356.043 614.113 357.415C614.802 358.783 614.836 360.052 614.587 360.095Z" fill="#F9F9F9"/>
<path d="M545.282 378.54C545.04 378.444 545.288 377.246 545.835 375.863C546.381 374.481 547.021 373.438 547.263 373.532C547.505 373.628 547.258 374.826 546.71 376.208C546.163 377.591 545.525 378.634 545.282 378.54Z" fill="#F9F9F9"/>
<path d="M547.263 405.834C547.095 406.033 546.067 405.449 544.962 404.527C543.856 403.607 543.097 402.7 543.264 402.499C543.43 402.3 544.458 402.884 545.564 403.806C546.668 404.724 547.429 405.633 547.263 405.834Z" fill="#F9F9F9"/>
<path d="M593.028 339.165C592.785 339.262 592.292 338.593 591.923 337.674C591.555 336.752 591.453 335.928 591.694 335.832C591.934 335.736 592.429 336.403 592.796 337.323C593.165 338.245 593.268 339.069 593.028 339.165Z" fill="#F9F9F9"/>
<path d="M636.551 352.468C636.298 352.412 636.32 351.324 636.602 350.037C636.884 348.751 637.318 347.751 637.572 347.807C637.825 347.863 637.804 348.951 637.52 350.24C637.238 351.527 636.804 352.524 636.551 352.468Z" fill="#F9F9F9"/>
<path d="M646.978 373.158C646.738 373.058 647.067 371.71 647.71 370.145C648.355 368.58 649.071 367.392 649.311 367.492C649.552 367.589 649.225 368.939 648.581 370.503C647.936 372.068 647.218 373.255 646.978 373.158Z" fill="#F9F9F9"/>
<path d="M639.827 389.762C639.593 389.879 638.735 388.629 637.907 386.973C637.078 385.316 636.595 383.879 636.826 383.763C637.06 383.646 637.92 384.895 638.749 386.552C639.577 388.209 640.06 389.646 639.827 389.762Z" fill="#F9F9F9"/>
<path d="M655.191 406.41C654.948 406.316 655.125 405.272 655.584 404.075C656.045 402.879 656.615 401.986 656.857 402.078C657.101 402.17 656.924 403.217 656.463 404.413C656.002 405.61 655.433 406.504 655.191 406.41Z" fill="#F9F9F9"/>
<path d="M641.251 422.786C641.031 422.923 640.479 422.439 640.02 421.702C639.56 420.966 639.364 420.258 639.585 420.118C639.805 419.981 640.357 420.467 640.817 421.205C641.278 421.94 641.472 422.649 641.251 422.786Z" fill="#F9F9F9"/>
<path d="M644.243 456.445C644.054 456.624 642.929 455.722 641.733 454.434C640.537 453.145 639.721 451.958 639.911 451.781C640.101 451.603 641.227 452.503 642.423 453.792C643.62 455.081 644.435 456.268 644.243 456.445Z" fill="#F9F9F9"/>
<path d="M662.683 437.153C662.48 437.314 661.493 436.4 660.479 435.111C659.467 433.822 658.811 432.648 659.017 432.487C659.222 432.326 660.208 433.241 661.219 434.529C662.233 435.818 662.887 436.992 662.683 437.153Z" fill="#F9F9F9"/>
<path d="M672.685 463.853C672.45 463.743 672.861 462.386 673.602 460.824C674.343 459.259 675.134 458.084 675.369 458.195C675.604 458.307 675.194 459.664 674.453 461.226C673.712 462.789 672.92 463.965 672.685 463.853Z" fill="#F9F9F9"/>
<path d="M651.241 485.725C651.011 485.864 650.173 484.859 649.009 483.797C647.856 482.721 646.789 481.966 646.909 481.725C647.013 481.498 648.38 481.928 649.648 483.104C650.923 484.276 651.461 485.604 651.241 485.725Z" fill="#F9F9F9"/>
<path d="M652.458 508.444C652.458 508.702 651.564 508.912 650.458 508.912C649.355 508.912 648.459 508.702 648.459 508.444C648.459 508.183 649.355 507.972 650.458 507.972C651.564 507.972 652.458 508.183 652.458 508.444Z" fill="#F9F9F9"/>
<path d="M674.628 502.1C674.4 501.959 674.863 500.833 675.21 499.412C675.573 497.995 675.693 496.784 675.962 496.768C676.211 496.739 676.522 498.058 676.124 499.64C675.732 501.223 674.836 502.242 674.628 502.1Z" fill="#F9F9F9"/>
<path d="M696.626 509.656C696.382 509.743 695.715 508.476 695.137 506.829C694.558 505.181 694.287 503.777 694.533 503.69C694.779 503.603 695.446 504.868 696.024 506.518C696.602 508.165 696.872 509.571 696.626 509.656Z" fill="#F9F9F9"/>
<path d="M692.935 540.817C692.706 540.696 693.263 539.18 694.179 537.43C695.097 535.679 696.028 534.358 696.257 534.479C696.487 534.6 695.93 536.114 695.014 537.866C694.096 539.617 693.167 540.936 692.935 540.817Z" fill="#F9F9F9"/>
<path d="M673.189 559.036C672.951 559.135 672.21 557.885 671.532 556.24C670.856 554.595 670.505 553.184 670.746 553.084C670.986 552.987 671.729 554.238 672.403 555.882C673.079 557.527 673.431 558.938 673.189 559.036Z" fill="#F9F9F9"/>
<path d="M651.009 566.119C651.009 566.379 650.263 566.589 649.343 566.589C648.423 566.589 647.677 566.379 647.677 566.119C647.677 565.857 648.423 565.647 649.343 565.647C650.263 565.647 651.009 565.857 651.009 566.119Z" fill="#F9F9F9"/>
<path d="M663.572 595.103C663.321 595.17 662.818 594.105 662.452 592.726C662.081 591.344 661.987 590.171 662.238 590.104C662.489 590.037 662.99 591.101 663.359 592.482C663.728 593.861 663.821 595.036 663.572 595.103Z" fill="#F9F9F9"/>
<path d="M647.755 585.462C647.533 585.328 647.799 584.473 648.352 583.555C648.905 582.633 649.532 581.995 649.756 582.131C649.978 582.263 649.711 583.116 649.158 584.037C648.607 584.957 647.978 585.597 647.755 585.462Z" fill="#F9F9F9"/>
<path d="M647.416 617.393C647.16 617.424 646.802 616.18 646.616 614.615C646.433 613.05 646.493 611.758 646.749 611.729C647.009 611.698 647.367 612.942 647.552 614.507C647.734 616.07 647.675 617.364 647.416 617.393Z" fill="#F9F9F9"/>
</svg>
